<svg version="1.1" xmlns="http://www.w3.org/2000/svg" xmlns:xlink="http://www.w3.org/1999/xlink" stroke-linecap="round" stroke-linejoin="round" stroke-width="0" fill-rule="evenodd" clip-rule="evenodd" id="IYNY3DYO8fAwMz7-UM0Y_bottom" viewBox="192267.767 -143500 57732.23300000001 100000" width="57.73223300000001mm" height="100mm" class="w-100 h-100"><defs><style>.IYNY3DYO8fAwMz7-UM0Y_fr4 {color: #666666;}
.IYNY3DYO8fAwMz7-UM0Y_cu {color: #cccccc;}
.IYNY3DYO8fAwMz7-UM0Y_cf {color: #cc9933;}
.IYNY3DYO8fAwMz7-UM0Y_sm {color: #004200; opacity: 0.75;}
.IYNY3DYO8fAwMz7-UM0Y_ss {color: #ffffff;}
.IYNY3DYO8fAwMz7-UM0Y_sp {color: #999999;}
.IYNY3DYO8fAwMz7-UM0Y_out {color: #000000;}</style><circle cx="0" cy="0" r="800" id="MPNhBJWpN2z8pPvoHmS1_pad-10"/><g id="MPNhBJWpN2z8pPvoHmS1_pad-11"><polygon points="550,550 -550,550 -550,-550 550,-550"/><circle cx="550" cy="550" r="250"/><circle cx="-550" cy="550" r="250"/><circle cx="-550" cy="-550" r="250"/><circle cx="550" cy="-550" r="250"/><polygon points="550,300 -550,300 -550,800 550,800"/><polygon points="-300,550 -300,-550 -800,-550 -800,550"/><polygon points="-550,-800 550,-800 550,-300 -550,-300"/><polygon points="800,-550 800,550 300,550 300,-550"/></g><circle cx="0" cy="0" r="850" id="MPNhBJWpN2z8pPvoHmS1_pad-12"/><rect x="-850" y="-850" width="1700" height="1700" id="MPNhBJWpN2z8pPvoHmS1_pad-13"/><g id="MPNhBJWpN2z8pPvoHmS1_pad-14"><polygon points="-0.01,-0.01 0.01,-0.01 0.01,0.01 -0.01,0.01"/><circle cx="-0.01" cy="-0.01" r="2500"/><circle cx="0.01" cy="-0.01" r="2500"/><circle cx="0.01" cy="0.01" r="2500"/><circle cx="-0.01" cy="0.01" r="2500"/><polygon points="-0.01,-2500.01 0.01,-2500.01 0.01,2499.99 -0.01,2499.99"/><polygon points="2500.01,-0.01 2500.01,0.01 -2499.99,0.01 -2499.99,-0.01"/><polygon points="0.01,-2499.99 -0.01,-2499.99 -0.01,2500.01 0.01,2500.01"/><polygon points="2499.99,0.01 2499.99,-0.01 -2500.01,-0.01 -2500.01,0.01"/></g><g id="MPNhBJWpN2z8pPvoHmS1_pad-15"><polygon points="-0.01,-0.01 0.01,-0.01 0.01,0.01 -0.01,0.01"/><circle cx="-0.01" cy="-0.01" r="1000"/><circle cx="0.01" cy="-0.01" r="1000"/><circle cx="0.01" cy="0.01" r="1000"/><circle cx="-0.01" cy="0.01" r="1000"/><polygon points="-0.01,-1000.01 0.01,-1000.01 0.01,999.99 -0.01,999.99"/><polygon points="1000.01,-0.01 1000.01,0.01 -999.99,0.01 -999.99,-0.01"/><polygon points="0.01,-999.99 -0.01,-999.99 -0.01,1000.01 0.01,1000.01"/><polygon points="999.99,0.01 999.99,-0.01 -1000.01,-0.01 -1000.01,0.01"/></g><g id="MPNhBJWpN2z8pPvoHmS1_pad-16"><polygon points="-0.01,-0.01 0.01,-0.01 0.01,0.01 -0.01,0.01"/><circle cx="-0.01" cy="-0.01" r="2000"/><circle cx="0.01" cy="-0.01" r="2000"/><circle cx="0.01" cy="0.01" r="2000"/><circle cx="-0.01" cy="0.01" r="2000"/><polygon points="-0.01,-2000.01 0.01,-2000.01 0.01,1999.99 -0.01,1999.99"/><polygon points="2000.01,-0.01 2000.01,0.01 -1999.99,0.01 -1999.99,-0.01"/><polygon points="0.01,-1999.99 -0.01,-1999.99 -0.01,2000.01 0.01,2000.01"/><polygon points="1999.99,0.01 1999.99,-0.01 -2000.01,-0.01 -2000.01,0.01"/></g><rect x="-750" y="-750" width="1500" height="1500" id="MPNhBJWpN2z8pPvoHmS1_pad-17"/><g id="MPNhBJWpN2z8pPvoHmS1_pad-18"><polygon points="680,-680 680,680 -680,680 -680,-680"/><circle cx="680" cy="-680" r="170"/><circle cx="680" cy="680" r="170"/><circle cx="-680" cy="680" r="170"/><circle cx="-680" cy="-680" r="170"/><polygon points="850,-680 850,680 510,680 510,-680"/><polygon points="680,510 -680,510 -680,850 680,850"/><polygon points="-510,680 -510,-680 -850,-680 -850,680"/><polygon points="-680,-850 680,-850 680,-510 -680,-510"/></g><circle cx="0" cy="0" r="800" id="frwqjxRL92flLmDK4byF_pad-10"/><g id="frwqjxRL92flLmDK4byF_pad-11"><polygon points="550,550 -550,550 -550,-550 550,-550"/><circle cx="550" cy="550" r="250"/><circle cx="-550" cy="550" r="250"/><circle cx="-550" cy="-550" r="250"/><circle cx="550" cy="-550" r="250"/><polygon points="550,300 -550,300 -550,800 550,800"/><polygon points="-300,550 -300,-550 -800,-550 -800,550"/><polygon points="-550,-800 550,-800 550,-300 -550,-300"/><polygon points="800,-550 800,550 300,550 300,-550"/></g><circle cx="0" cy="0" r="850" id="frwqjxRL92flLmDK4byF_pad-12"/><rect x="-850" y="-850" width="1700" height="1700" id="frwqjxRL92flLmDK4byF_pad-13"/><g id="frwqjxRL92flLmDK4byF_pad-14"><polygon points="-0.01,-0.01 0.01,-0.01 0.01,0.01 -0.01,0.01"/><circle cx="-0.01" cy="-0.01" r="2500"/><circle cx="0.01" cy="-0.01" r="2500"/><circle cx="0.01" cy="0.01" r="2500"/><circle cx="-0.01" cy="0.01" r="2500"/><polygon points="-0.01,-2500.01 0.01,-2500.01 0.01,2499.99 -0.01,2499.99"/><polygon points="2500.01,-0.01 2500.01,0.01 -2499.99,0.01 -2499.99,-0.01"/><polygon points="0.01,-2499.99 -0.01,-2499.99 -0.01,2500.01 0.01,2500.01"/><polygon points="2499.99,0.01 2499.99,-0.01 -2500.01,-0.01 -2500.01,0.01"/></g><g id="frwqjxRL92flLmDK4byF_pad-15"><polygon points="-875,-875 875,-875 875,875 -875,875"/><circle cx="-875" cy="-875" r="375"/><circle cx="875" cy="-875" r="375"/><circle cx="875" cy="875" r="375"/><circle cx="-875" cy="875" r="375"/><polygon points="-875,-1250 875,-1250 875,-500 -875,-500"/><polygon points="1250,-875 1250,875 500,875 500,-875"/><polygon points="875,500 -875,500 -875,1250 875,1250"/><polygon points="-500,875 -500,-875 -1250,-875 -1250,875"/></g><g id="frwqjxRL92flLmDK4byF_pad-16"><polygon points="-0.01,-0.01 0.01,-0.01 0.01,0.01 -0.01,0.01"/><circle cx="-0.01" cy="-0.01" r="1000"/><circle cx="0.01" cy="-0.01" r="1000"/><circle cx="0.01" cy="0.01" r="1000"/><circle cx="-0.01" cy="0.01" r="1000"/><polygon points="-0.01,-1000.01 0.01,-1000.01 0.01,999.99 -0.01,999.99"/><polygon points="1000.01,-0.01 1000.01,0.01 -999.99,0.01 -999.99,-0.01"/><polygon points="0.01,-999.99 -0.01,-999.99 -0.01,1000.01 0.01,1000.01"/><polygon points="999.99,0.01 999.99,-0.01 -1000.01,-0.01 -1000.01,0.01"/></g><g id="frwqjxRL92flLmDK4byF_pad-17"><polygon points="-0.01,-0.01 0.01,-0.01 0.01,0.01 -0.01,0.01"/><circle cx="-0.01" cy="-0.01" r="2000"/><circle cx="0.01" cy="-0.01" r="2000"/><circle cx="0.01" cy="0.01" r="2000"/><circle cx="-0.01" cy="0.01" r="2000"/><polygon points="-0.01,-2000.01 0.01,-2000.01 0.01,1999.99 -0.01,1999.99"/><polygon points="2000.01,-0.01 2000.01,0.01 -1999.99,0.01 -1999.99,-0.01"/><polygon points="0.01,-1999.99 -0.01,-1999.99 -0.01,2000.01 0.01,2000.01"/><polygon points="1999.99,0.01 1999.99,-0.01 -2000.01,-0.01 -2000.01,0.01"/></g><rect x="-750" y="-750" width="1500" height="1500" id="frwqjxRL92flLmDK4byF_pad-18"/><g id="frwqjxRL92flLmDK4byF_pad-19"><polygon points="680,-680 680,680 -680,680 -680,-680"/><circle cx="680" cy="-680" r="170"/><circle cx="680" cy="680" r="170"/><circle cx="-680" cy="680" r="170"/><circle cx="-680" cy="-680" r="170"/><polygon points="850,-680 850,680 510,680 510,-680"/><polygon points="680,510 -680,510 -680,850 680,850"/><polygon points="-510,680 -510,-680 -850,-680 -850,680"/><polygon points="-680,-850 680,-850 680,-510 -680,-510"/></g><circle cx="0" cy="0" r="1000" id="BnULextIQ18So3uC-exn_pad-1"/><circle cx="0" cy="0" r="2000" id="BnULextIQ18So3uC-exn_pad-2"/><circle cx="0" cy="0" r="2500" id="BnULextIQ18So3uC-exn_pad-3"/><circle cx="0" cy="0" r="400" id="qR1gGTFSuEUzFFc3GJwp_pad-1"/><circle cx="0" cy="0" r="500" id="qR1gGTFSuEUzFFc3GJwp_pad-2"/><g id="IYNY3DYO8fAwMz7-UM0Y_bottom_copper"><use xlink:href="#MPNhBJWpN2z8pPvoHmS1_pad-10" x="245500" y="-73000"/><use xlink:href="#MPNhBJWpN2z8pPvoHmS1_pad-11" x="247500" y="-73000"/><use xlink:href="#MPNhBJWpN2z8pPvoHmS1_pad-12" x="233890" y="-70993.276"/><use xlink:href="#MPNhBJWpN2z8pPvoHmS1_pad-13" x="231350" y="-70993.276"/><use xlink:href="#MPNhBJWpN2z8pPvoHmS1_pad-12" x="239040" y="-51500"/><use xlink:href="#MPNhBJWpN2z8pPvoHmS1_pad-12" x="236500" y="-51500"/><use xlink:href="#MPNhBJWpN2z8pPvoHmS1_pad-12" x="233960" y="-51500"/><use xlink:href="#MPNhBJWpN2z8pPvoHmS1_pad-12" x="231420" y="-51500"/><use xlink:href="#MPNhBJWpN2z8pPvoHmS1_pad-12" x="228880" y="-51500"/><use xlink:href="#MPNhBJWpN2z8pPvoHmS1_pad-12" x="226340" y="-51500"/><use xlink:href="#MPNhBJWpN2z8pPvoHmS1_pad-12" x="223800" y="-51500"/><use xlink:href="#MPNhBJWpN2z8pPvoHmS1_pad-12" x="239040" y="-66500"/><use xlink:href="#MPNhBJWpN2z8pPvoHmS1_pad-12" x="236500" y="-66500"/><use xlink:href="#MPNhBJWpN2z8pPvoHmS1_pad-12" x="233960" y="-66500"/><use xlink:href="#MPNhBJWpN2z8pPvoHmS1_pad-12" x="231420" y="-66500"/><use xlink:href="#MPNhBJWpN2z8pPvoHmS1_pad-12" x="228880" y="-66500"/><use xlink:href="#MPNhBJWpN2z8pPvoHmS1_pad-12" x="226340" y="-66500"/><use xlink:href="#MPNhBJWpN2z8pPvoHmS1_pad-12" x="223800" y="-66500"/><use xlink:href="#MPNhBJWpN2z8pPvoHmS1_pad-14" x="232750" y="-62000"/><use xlink:href="#MPNhBJWpN2z8pPvoHmS1_pad-13" x="239727.927" y="-75462.482"/><use xlink:href="#MPNhBJWpN2z8pPvoHmS1_pad-12" x="237187.927" y="-75462.482"/><use xlink:href="#MPNhBJWpN2z8pPvoHmS1_pad-15" x="194767.767" y="-67500"/><use xlink:href="#MPNhBJWpN2z8pPvoHmS1_pad-15" x="247500" y="-67500"/><use xlink:href="#MPNhBJWpN2z8pPvoHmS1_pad-16" x="234500" y="-103500"/><use xlink:href="#MPNhBJWpN2z8pPvoHmS1_pad-16" x="207767.767" y="-103500"/><use xlink:href="#MPNhBJWpN2z8pPvoHmS1_pad-17" x="247488.794" y="-49528.162"/><use xlink:href="#MPNhBJWpN2z8pPvoHmS1_pad-10" x="247488.794" y="-52068.162"/><use xlink:href="#MPNhBJWpN2z8pPvoHmS1_pad-10" x="247488.794" y="-46988.162"/><use xlink:href="#MPNhBJWpN2z8pPvoHmS1_pad-18" x="193500" y="-53120"/><use xlink:href="#MPNhBJWpN2z8pPvoHmS1_pad-12" x="193500" y="-50580"/><use xlink:href="#MPNhBJWpN2z8pPvoHmS1_pad-12" x="193500" y="-48040"/><use xlink:href="#MPNhBJWpN2z8pPvoHmS1_pad-12" x="193500" y="-45500"/></g><g id="IYNY3DYO8fAwMz7-UM0Y_bottom_soldermask"><use xlink:href="#frwqjxRL92flLmDK4byF_pad-10" x="245500" y="-73000"/><use xlink:href="#frwqjxRL92flLmDK4byF_pad-11" x="247500" y="-73000"/><use xlink:href="#frwqjxRL92flLmDK4byF_pad-12" x="233890" y="-70993.276"/><use xlink:href="#frwqjxRL92flLmDK4byF_pad-13" x="231350" y="-70993.276"/><use xlink:href="#frwqjxRL92flLmDK4byF_pad-12" x="239040" y="-51500"/><use xlink:href="#frwqjxRL92flLmDK4byF_pad-12" x="236500" y="-51500"/><use xlink:href="#frwqjxRL92flLmDK4byF_pad-12" x="233960" y="-51500"/><use xlink:href="#frwqjxRL92flLmDK4byF_pad-12" x="231420" y="-51500"/><use xlink:href="#frwqjxRL92flLmDK4byF_pad-12" x="228880" y="-51500"/><use xlink:href="#frwqjxRL92flLmDK4byF_pad-12" x="226340" y="-51500"/><use xlink:href="#frwqjxRL92flLmDK4byF_pad-12" x="223800" y="-51500"/><use xlink:href="#frwqjxRL92flLmDK4byF_pad-12" x="239040" y="-66500"/><use xlink:href="#frwqjxRL92flLmDK4byF_pad-12" x="236500" y="-66500"/><use xlink:href="#frwqjxRL92flLmDK4byF_pad-12" x="233960" y="-66500"/><use xlink:href="#frwqjxRL92flLmDK4byF_pad-12" x="231420" y="-66500"/><use xlink:href="#frwqjxRL92flLmDK4byF_pad-12" x="228880" y="-66500"/><use xlink:href="#frwqjxRL92flLmDK4byF_pad-12" x="226340" y="-66500"/><use xlink:href="#frwqjxRL92flLmDK4byF_pad-12" x="223800" y="-66500"/><use xlink:href="#frwqjxRL92flLmDK4byF_pad-14" x="232750" y="-62000"/><use xlink:href="#frwqjxRL92flLmDK4byF_pad-15" x="202258.039" y="-104000"/><use xlink:href="#frwqjxRL92flLmDK4byF_pad-15" x="199258.039" y="-101000"/><use xlink:href="#frwqjxRL92flLmDK4byF_pad-15" x="202258.039" y="-101000"/><use xlink:href="#frwqjxRL92flLmDK4byF_pad-15" x="199258.039" y="-104000"/><use xlink:href="#frwqjxRL92flLmDK4byF_pad-15" x="202258.039" y="-89500"/><use xlink:href="#frwqjxRL92flLmDK4byF_pad-15" x="199258.039" y="-86500"/><use xlink:href="#frwqjxRL92flLmDK4byF_pad-15" x="202258.039" y="-86500"/><use xlink:href="#frwqjxRL92flLmDK4byF_pad-15" x="199258.039" y="-89500"/><use xlink:href="#frwqjxRL92flLmDK4byF_pad-13" x="239727.927" y="-75462.482"/><use xlink:href="#frwqjxRL92flLmDK4byF_pad-12" x="237187.927" y="-75462.482"/><use xlink:href="#frwqjxRL92flLmDK4byF_pad-16" x="194767.767" y="-67500"/><use xlink:href="#frwqjxRL92flLmDK4byF_pad-16" x="247500" y="-67500"/><use xlink:href="#frwqjxRL92flLmDK4byF_pad-17" x="234500" y="-103500"/><use xlink:href="#frwqjxRL92flLmDK4byF_pad-17" x="207767.767" y="-103500"/><use xlink:href="#frwqjxRL92flLmDK4byF_pad-18" x="247488.794" y="-49528.162"/><use xlink:href="#frwqjxRL92flLmDK4byF_pad-10" x="247488.794" y="-52068.162"/><use xlink:href="#frwqjxRL92flLmDK4byF_pad-10" x="247488.794" y="-46988.162"/><use xlink:href="#frwqjxRL92flLmDK4byF_pad-15" x="214267.767" y="-104000"/><use xlink:href="#frwqjxRL92flLmDK4byF_pad-15" x="217267.767" y="-101000"/><use xlink:href="#frwqjxRL92flLmDK4byF_pad-15" x="214267.767" y="-101000"/><use xlink:href="#frwqjxRL92flLmDK4byF_pad-15" x="217267.767" y="-104000"/><use xlink:href="#frwqjxRL92flLmDK4byF_pad-19" x="193500" y="-53120"/><use xlink:href="#frwqjxRL92flLmDK4byF_pad-12" x="193500" y="-50580"/><use xlink:href="#frwqjxRL92flLmDK4byF_pad-12" x="193500" y="-48040"/><use xlink:href="#frwqjxRL92flLmDK4byF_pad-12" x="193500" y="-45500"/></g><g id="IYNY3DYO8fAwMz7-UM0Y_bottom_silkscreen"><path d="M 246666.666 -69609.58 246714.285 -69657.2 246857.142 -69704.819 246952.38 -69704.819 247095.237 -69657.2 247190.475 -69561.961 247238.094 -69466.723 247285.713 -69276.247 247285.713 -69133.39 247238.094 -68942.914 247190.475 -68847.676 247095.237 -68752.438 246952.38 -68704.819 246857.142 -68704.819 246714.285 -68752.438 246666.666 -68800.057 M 245714.285 -69704.819 246285.713 -69704.819 M 245999.999 -69704.819 245999.999 -68704.819 246095.237 -68847.676 246190.475 -68942.914 246285.713 -68990.533 M 220714.819 -51166.666 221429.104 -51166.666 221571.961 -51119.047 221667.2 -51023.809 221714.819 -50880.952 221714.819 -50785.714 M 221714.819 -52166.666 221714.819 -51595.238 M 221714.819 -51880.952 220714.819 -51880.952 220857.676 -51785.714 220952.914 -51690.476 221000.533 -51595.238 M 220714.819 -66166.666 221429.104 -66166.666 221571.961 -66119.047 221667.2 -66023.809 221714.819 -65880.952 221714.819 -65785.714 M 220810.057 -66595.238 220762.438 -66642.857 220714.819 -66738.095 220714.819 -66976.19 220762.438 -67071.428 220810.057 -67119.047 220905.295 -67166.666 221000.533 -67166.666 221143.39 -67119.047 221714.819 -66547.619 221714.819 -67166.666" fill="none" stroke-width="150"/><path d="M 249120 -73000 A 2620 2620 0 0 0 243880 -73000 2620 2620 0 0 0 249120 -73000 M 246500 -74040 246500 -75580 M 246460 -74040 246460 -75580 M 246420 -74040 246420 -75579 M 246380 -74040 246380 -75577 M 246340 -74040 246340 -75575 M 246300 -74040 246300 -75572 M 246260 -74040 246260 -75569 M 246220 -74040 246220 -75565 M 246180 -74040 246180 -75560 M 246140 -74040 246140 -75555 M 246100 -74040 246100 -75549 M 246060 -74040 246060 -75543 M 246020 -74040 246020 -75536 M 245980 -74040 245980 -75528 M 245940 -74040 245940 -75519 M 245900 -74040 245900 -75510 M 245860 -74040 245860 -75501 M 245820 -74040 245820 -75490 M 245780 -74040 245780 -75479 M 245740 -74040 245740 -75467 M 245700 -74040 245700 -75455 M 245660 -74040 245660 -75442 M 245620 -74040 245620 -75428 M 245580 -74040 245580 -75413 M 245540 -74040 245540 -75398 M 245500 -74040 245500 -75382 M 245460 -74040 245460 -75365 M 245420 -74040 245420 -75347 M 245380 -74040 245380 -75329 M 245340 -74040 245340 -75309 M 245300 -74040 245300 -75289 M 245260 -74040 245260 -75268 M 245220 -74040 245220 -75246 M 245180 -74040 245180 -75223 M 245140 -74040 245140 -75199 M 245100 -74040 245100 -75175 M 245060 -74040 245060 -75149 M 245020 -74040 245020 -75122 M 244980 -74040 244980 -75094 M 244940 -74040 244940 -75065 M 244900 -74040 244900 -75035 M 244860 -74040 244860 -75003 M 244820 -74040 244820 -74970 M 244780 -74040 244780 -74936 M 244740 -74040 244740 -74901 M 244700 -74040 244700 -74864 M 244660 -74040 244660 -74825 M 244620 -74040 244620 -74785 M 244580 -74040 244580 -74743 M 244540 -74040 244540 -74699 M 244500 -74040 244500 -74652 M 243900 -72717 243900 -73283 M 243940 -72483 243940 -73517 M 243980 -72323 243980 -73677 M 244020 -72195 244020 -73805 M 244060 -72086 244060 -73914 M 244100 -71989 244100 -74011 M 244140 -71902 244140 -74098 M 244180 -71823 244180 -74177 M 244220 -71749 244220 -74251 M 244260 -71681 244260 -74319 M 244300 -71617 244300 -74383 M 244340 -71557 244340 -74443 M 249304.775 -71525 248804.775 -71525 M 244380 -71501 244380 -74499 M 244420 -71447 244420 -74553 M 244460 -71396 244460 -74604 M 244500 -71348 244500 -71960 M 244540 -71301 244540 -71960 M 249054.775 -71275 249054.775 -71775 M 244580 -71257 244580 -71960 M 244620 -71215 244620 -71960 M 244660 -71175 244660 -71960 M 244700 -71136 244700 -71960 M 244740 -71099 244740 -71960 M 244780 -71064 244780 -71960 M 244820 -71030 244820 -71960 M 244860 -70997 244860 -71960 M 244900 -70965 244900 -71960 M 244940 -70935 244940 -71960 M 244980 -70906 244980 -71960 M 245020 -70878 245020 -71960 M 245060 -70851 245060 -71960 M 245100 -70825 245100 -71960 M 245140 -70801 245140 -71960 M 245180 -70777 245180 -71960 M 245220 -70754 245220 -71960 M 245260 -70732 245260 -71960 M 245300 -70711 245300 -71960 M 245340 -70691 245340 -71960 M 245380 -70671 245380 -71960 M 245420 -70653 245420 -71960 M 245460 -70635 245460 -71960 M 245500 -70618 245500 -71960 M 245540 -70602 245540 -71960 M 245580 -70587 245580 -71960 M 245620 -70572 245620 -71960 M 245660 -70558 245660 -71960 M 245700 -70545 245700 -71960 M 245740 -70533 245740 -71960 M 245780 -70521 245780 -71960 M 245820 -70510 245820 -71960 M 245860 -70499 245860 -71960 M 245900 -70490 245900 -71960 M 245940 -70481 245940 -71960 M 245980 -70472 245980 -71960 M 246020 -70464 246020 -71960 M 246060 -70457 246060 -71960 M 246100 -70451 246100 -71960 M 246140 -70445 246140 -71960 M 246180 -70440 246180 -71960 M 246220 -70435 246220 -71960 M 246260 -70431 246260 -71960 M 246300 -70428 246300 -71960 M 246340 -70425 246340 -71960 M 246380 -70423 246380 -71960 M 246420 -70421 246420 -71960 M 246500 -70420 246500 -71960 M 246460 -70420 246460 -71960 M 222530 -50120 240420 -50120 M 222530 -50120 222530 -52880 M 240420 -50120 240420 -52880 M 222530 -52880 240420 -52880 M 222530 -65120 240420 -65120 M 222530 -65120 222530 -67880 M 240420 -65120 240420 -67880 M 222530 -67880 240420 -67880" fill="none" stroke-width="120"/></g><g id="IYNY3DYO8fAwMz7-UM0Y_bottom_drill1"><use xlink:href="#BnULextIQ18So3uC-exn_pad-1" x="194768" y="-67500"/><use xlink:href="#BnULextIQ18So3uC-exn_pad-1" x="247500" y="-67500"/><use xlink:href="#BnULextIQ18So3uC-exn_pad-2" x="207768" y="-103500"/><use xlink:href="#BnULextIQ18So3uC-exn_pad-2" x="234500" y="-103500"/><use xlink:href="#BnULextIQ18So3uC-exn_pad-3" x="232750" y="-62000"/></g><g id="IYNY3DYO8fAwMz7-UM0Y_bottom_drill2"><use xlink:href="#qR1gGTFSuEUzFFc3GJwp_pad-1" x="245500" y="-73000"/><use xlink:href="#qR1gGTFSuEUzFFc3GJwp_pad-1" x="247489" y="-46988"/><use xlink:href="#qR1gGTFSuEUzFFc3GJwp_pad-1" x="247489" y="-49528"/><use xlink:href="#qR1gGTFSuEUzFFc3GJwp_pad-1" x="247489" y="-52068"/><use xlink:href="#qR1gGTFSuEUzFFc3GJwp_pad-1" x="247500" y="-73000"/><use xlink:href="#qR1gGTFSuEUzFFc3GJwp_pad-2" x="193500" y="-45500"/><use xlink:href="#qR1gGTFSuEUzFFc3GJwp_pad-2" x="193500" y="-48040"/><use xlink:href="#qR1gGTFSuEUzFFc3GJwp_pad-2" x="193500" y="-50580"/><use xlink:href="#qR1gGTFSuEUzFFc3GJwp_pad-2" x="193500" y="-53120"/><use xlink:href="#qR1gGTFSuEUzFFc3GJwp_pad-2" x="223800" y="-51500"/><use xlink:href="#qR1gGTFSuEUzFFc3GJwp_pad-2" x="223800" y="-66500"/><use xlink:href="#qR1gGTFSuEUzFFc3GJwp_pad-2" x="226340" y="-51500"/><use xlink:href="#qR1gGTFSuEUzFFc3GJwp_pad-2" x="226340" y="-66500"/><use xlink:href="#qR1gGTFSuEUzFFc3GJwp_pad-2" x="228880" y="-51500"/><use xlink:href="#qR1gGTFSuEUzFFc3GJwp_pad-2" x="228880" y="-66500"/><use xlink:href="#qR1gGTFSuEUzFFc3GJwp_pad-2" x="231350" y="-70993"/><use xlink:href="#qR1gGTFSuEUzFFc3GJwp_pad-2" x="231420" y="-51500"/><use xlink:href="#qR1gGTFSuEUzFFc3GJwp_pad-2" x="231420" y="-66500"/><use xlink:href="#qR1gGTFSuEUzFFc3GJwp_pad-2" x="233890" y="-70993"/><use xlink:href="#qR1gGTFSuEUzFFc3GJwp_pad-2" x="233960" y="-51500"/><use xlink:href="#qR1gGTFSuEUzFFc3GJwp_pad-2" x="233960" y="-66500"/><use xlink:href="#qR1gGTFSuEUzFFc3GJwp_pad-2" x="236500" y="-51500"/><use xlink:href="#qR1gGTFSuEUzFFc3GJwp_pad-2" x="236500" y="-66500"/><use xlink:href="#qR1gGTFSuEUzFFc3GJwp_pad-2" x="237188" y="-75462"/><use xlink:href="#qR1gGTFSuEUzFFc3GJwp_pad-2" x="239040" y="-51500"/><use xlink:href="#qR1gGTFSuEUzFFc3GJwp_pad-2" x="239040" y="-66500"/><use xlink:href="#qR1gGTFSuEUzFFc3GJwp_pad-2" x="239728" y="-75462"/></g><clipPath id="IYNY3DYO8fAwMz7-UM0Y_bottom_outline"><path d="M 250000 -46000 250000 -141000 A 2500 2500 0 0 0 247500 -143500 L 194767.767 -143500 A 2500 2500 0 0 0 192267.767 -141000 L 192267.767 -46000 A 2500 2500 0 0 0 194767.767 -43500 L 247500 -43500 A 2500 2500 0 0 0 250000 -46000" fill="none" stroke-width="50"/></clipPath><mask id="IYNY3DYO8fAwMz7-UM0Y_bottom_mech-mask"><g fill="#000" stroke="#000"><rect x="192267.767" y="-143500" width="57732.233" height="100000" fill="#fff"/><use xlink:href="#IYNY3DYO8fAwMz7-UM0Y_bottom_drill1"/><use xlink:href="#IYNY3DYO8fAwMz7-UM0Y_bottom_drill2"/></g></mask><mask id="IYNY3DYO8fAwMz7-UM0Y_bottom_cf-mask"><g fill="#fff" stroke="#fff"><use xlink:href="#IYNY3DYO8fAwMz7-UM0Y_bottom_soldermask"/></g></mask><mask id="IYNY3DYO8fAwMz7-UM0Y_bottom_sm-mask"><g fill="#000" stroke="#000"><rect x="192267.767" y="-143500" width="57732.233" height="100000" fill="#fff"/><use xlink:href="#IYNY3DYO8fAwMz7-UM0Y_bottom_soldermask"/></g></mask></defs><g transform="translate(0,-187000) scale(1,-1)"><g mask="url(#IYNY3DYO8fAwMz7-UM0Y_bottom_mech-mask)" clip-path="url(#IYNY3DYO8fAwMz7-UM0Y_bottom_outline)" transform="translate(442267.767,0) scale(-1,1)"><rect x="192267.767" y="-143500" width="57732.233" height="100000" fill="currentColor" class="IYNY3DYO8fAwMz7-UM0Y_fr4"/><use xlink:href="#IYNY3DYO8fAwMz7-UM0Y_bottom_copper" fill="currentColor" stroke="currentColor" class="IYNY3DYO8fAwMz7-UM0Y_cu"/><use xlink:href="#IYNY3DYO8fAwMz7-UM0Y_bottom_copper" fill="currentColor" stroke="currentColor" class="IYNY3DYO8fAwMz7-UM0Y_cf" mask="url(#IYNY3DYO8fAwMz7-UM0Y_bottom_cf-mask)"/><g mask="url(#IYNY3DYO8fAwMz7-UM0Y_bottom_sm-mask)"><rect x="192267.767" y="-143500" width="57732.233" height="100000" fill="currentColor" class="IYNY3DYO8fAwMz7-UM0Y_sm"/><use xlink:href="#IYNY3DYO8fAwMz7-UM0Y_bottom_silkscreen" fill="currentColor" stroke="currentColor" class="IYNY3DYO8fAwMz7-UM0Y_ss"/></g></g></g></svg>