<svg version="1.1" xmlns="http://www.w3.org/2000/svg" xmlns:xlink="http://www.w3.org/1999/xlink" stroke-linecap="round" stroke-linejoin="round" stroke-width="0" fill-rule="evenodd" width="56.45mm" height="61.3mm" viewBox="192650 -105950 56450 61300" id="Iyyukj8ozxFbSkbIe4Jt"><defs><circle cx="0" cy="0" r="800" id="Iyyukj8ozxFbSkbIe4Jt_pad-10"/><g id="Iyyukj8ozxFbSkbIe4Jt_pad-11"><polygon points="550,550 -550,550 -550,-550 550,-550"/><circle cx="550" cy="550" r="250"/><circle cx="-550" cy="550" r="250"/><circle cx="-550" cy="-550" r="250"/><circle cx="550" cy="-550" r="250"/><polygon points="550,300 -550,300 -550,800 550,800"/><polygon points="-300,550 -300,-550 -800,-550 -800,550"/><polygon points="-550,-800 550,-800 550,-300 -550,-300"/><polygon points="800,-550 800,550 300,550 300,-550"/></g><circle cx="0" cy="0" r="850" id="Iyyukj8ozxFbSkbIe4Jt_pad-12"/><rect x="-850" y="-850" width="1700" height="1700" id="Iyyukj8ozxFbSkbIe4Jt_pad-13"/><g id="Iyyukj8ozxFbSkbIe4Jt_pad-14"><polygon points="-0.01,-0.01 0.01,-0.01 0.01,0.01 -0.01,0.01"/><circle cx="-0.01" cy="-0.01" r="2500"/><circle cx="0.01" cy="-0.01" r="2500"/><circle cx="0.01" cy="0.01" r="2500"/><circle cx="-0.01" cy="0.01" r="2500"/><polygon points="-0.01,-2500.01 0.01,-2500.01 0.01,2499.99 -0.01,2499.99"/><polygon points="2500.01,-0.01 2500.01,0.01 -2499.99,0.01 -2499.99,-0.01"/><polygon points="0.01,-2499.99 -0.01,-2499.99 -0.01,2500.01 0.01,2500.01"/><polygon points="2499.99,0.01 2499.99,-0.01 -2500.01,-0.01 -2500.01,0.01"/></g><g id="Iyyukj8ozxFbSkbIe4Jt_pad-15"><polygon points="-875,-875 875,-875 875,875 -875,875"/><circle cx="-875" cy="-875" r="375"/><circle cx="875" cy="-875" r="375"/><circle cx="875" cy="875" r="375"/><circle cx="-875" cy="875" r="375"/><polygon points="-875,-1250 875,-1250 875,-500 -875,-500"/><polygon points="1250,-875 1250,875 500,875 500,-875"/><polygon points="875,500 -875,500 -875,1250 875,1250"/><polygon points="-500,875 -500,-875 -1250,-875 -1250,875"/></g><g id="Iyyukj8ozxFbSkbIe4Jt_pad-16"><polygon points="-0.01,-0.01 0.01,-0.01 0.01,0.01 -0.01,0.01"/><circle cx="-0.01" cy="-0.01" r="1000"/><circle cx="0.01" cy="-0.01" r="1000"/><circle cx="0.01" cy="0.01" r="1000"/><circle cx="-0.01" cy="0.01" r="1000"/><polygon points="-0.01,-1000.01 0.01,-1000.01 0.01,999.99 -0.01,999.99"/><polygon points="1000.01,-0.01 1000.01,0.01 -999.99,0.01 -999.99,-0.01"/><polygon points="0.01,-999.99 -0.01,-999.99 -0.01,1000.01 0.01,1000.01"/><polygon points="999.99,0.01 999.99,-0.01 -1000.01,-0.01 -1000.01,0.01"/></g><g id="Iyyukj8ozxFbSkbIe4Jt_pad-17"><polygon points="-0.01,-0.01 0.01,-0.01 0.01,0.01 -0.01,0.01"/><circle cx="-0.01" cy="-0.01" r="2000"/><circle cx="0.01" cy="-0.01" r="2000"/><circle cx="0.01" cy="0.01" r="2000"/><circle cx="-0.01" cy="0.01" r="2000"/><polygon points="-0.01,-2000.01 0.01,-2000.01 0.01,1999.99 -0.01,1999.99"/><polygon points="2000.01,-0.01 2000.01,0.01 -1999.99,0.01 -1999.99,-0.01"/><polygon points="0.01,-1999.99 -0.01,-1999.99 -0.01,2000.01 0.01,2000.01"/><polygon points="1999.99,0.01 1999.99,-0.01 -2000.01,-0.01 -2000.01,0.01"/></g><rect x="-750" y="-750" width="1500" height="1500" id="Iyyukj8ozxFbSkbIe4Jt_pad-18"/><g id="Iyyukj8ozxFbSkbIe4Jt_pad-19"><polygon points="680,-680 680,680 -680,680 -680,-680"/><circle cx="680" cy="-680" r="170"/><circle cx="680" cy="680" r="170"/><circle cx="-680" cy="680" r="170"/><circle cx="-680" cy="-680" r="170"/><polygon points="850,-680 850,680 510,680 510,-680"/><polygon points="680,510 -680,510 -680,850 680,850"/><polygon points="-510,680 -510,-680 -850,-680 -850,680"/><polygon points="-680,-850 680,-850 680,-510 -680,-510"/></g></defs><g transform="translate(0,-150600) scale(1,-1)" fill="currentColor" stroke="currentColor"><use xlink:href="#Iyyukj8ozxFbSkbIe4Jt_pad-10" x="245500" y="-73000"/><use xlink:href="#Iyyukj8ozxFbSkbIe4Jt_pad-11" x="247500" y="-73000"/><use xlink:href="#Iyyukj8ozxFbSkbIe4Jt_pad-12" x="233890" y="-70993.276"/><use xlink:href="#Iyyukj8ozxFbSkbIe4Jt_pad-13" x="231350" y="-70993.276"/><use xlink:href="#Iyyukj8ozxFbSkbIe4Jt_pad-12" x="239040" y="-51500"/><use xlink:href="#Iyyukj8ozxFbSkbIe4Jt_pad-12" x="236500" y="-51500"/><use xlink:href="#Iyyukj8ozxFbSkbIe4Jt_pad-12" x="233960" y="-51500"/><use xlink:href="#Iyyukj8ozxFbSkbIe4Jt_pad-12" x="231420" y="-51500"/><use xlink:href="#Iyyukj8ozxFbSkbIe4Jt_pad-12" x="228880" y="-51500"/><use xlink:href="#Iyyukj8ozxFbSkbIe4Jt_pad-12" x="226340" y="-51500"/><use xlink:href="#Iyyukj8ozxFbSkbIe4Jt_pad-12" x="223800" y="-51500"/><use xlink:href="#Iyyukj8ozxFbSkbIe4Jt_pad-12" x="239040" y="-66500"/><use xlink:href="#Iyyukj8ozxFbSkbIe4Jt_pad-12" x="236500" y="-66500"/><use xlink:href="#Iyyukj8ozxFbSkbIe4Jt_pad-12" x="233960" y="-66500"/><use xlink:href="#Iyyukj8ozxFbSkbIe4Jt_pad-12" x="231420" y="-66500"/><use xlink:href="#Iyyukj8ozxFbSkbIe4Jt_pad-12" x="228880" y="-66500"/><use xlink:href="#Iyyukj8ozxFbSkbIe4Jt_pad-12" x="226340" y="-66500"/><use xlink:href="#Iyyukj8ozxFbSkbIe4Jt_pad-12" x="223800" y="-66500"/><use xlink:href="#Iyyukj8ozxFbSkbIe4Jt_pad-14" x="232750" y="-62000"/><use xlink:href="#Iyyukj8ozxFbSkbIe4Jt_pad-15" x="202258.039" y="-104000"/><use xlink:href="#Iyyukj8ozxFbSkbIe4Jt_pad-15" x="199258.039" y="-101000"/><use xlink:href="#Iyyukj8ozxFbSkbIe4Jt_pad-15" x="202258.039" y="-101000"/><use xlink:href="#Iyyukj8ozxFbSkbIe4Jt_pad-15" x="199258.039" y="-104000"/><use xlink:href="#Iyyukj8ozxFbSkbIe4Jt_pad-15" x="202258.039" y="-89500"/><use xlink:href="#Iyyukj8ozxFbSkbIe4Jt_pad-15" x="199258.039" y="-86500"/><use xlink:href="#Iyyukj8ozxFbSkbIe4Jt_pad-15" x="202258.039" y="-86500"/><use xlink:href="#Iyyukj8ozxFbSkbIe4Jt_pad-15" x="199258.039" y="-89500"/><use xlink:href="#Iyyukj8ozxFbSkbIe4Jt_pad-13" x="239727.927" y="-75462.482"/><use xlink:href="#Iyyukj8ozxFbSkbIe4Jt_pad-12" x="237187.927" y="-75462.482"/><use xlink:href="#Iyyukj8ozxFbSkbIe4Jt_pad-16" x="194767.767" y="-67500"/><use xlink:href="#Iyyukj8ozxFbSkbIe4Jt_pad-16" x="247500" y="-67500"/><use xlink:href="#Iyyukj8ozxFbSkbIe4Jt_pad-17" x="234500" y="-103500"/><use xlink:href="#Iyyukj8ozxFbSkbIe4Jt_pad-17" x="207767.767" y="-103500"/><use xlink:href="#Iyyukj8ozxFbSkbIe4Jt_pad-18" x="247488.794" y="-49528.162"/><use xlink:href="#Iyyukj8ozxFbSkbIe4Jt_pad-10" x="247488.794" y="-52068.162"/><use xlink:href="#Iyyukj8ozxFbSkbIe4Jt_pad-10" x="247488.794" y="-46988.162"/><use xlink:href="#Iyyukj8ozxFbSkbIe4Jt_pad-15" x="214267.767" y="-104000"/><use xlink:href="#Iyyukj8ozxFbSkbIe4Jt_pad-15" x="217267.767" y="-101000"/><use xlink:href="#Iyyukj8ozxFbSkbIe4Jt_pad-15" x="214267.767" y="-101000"/><use xlink:href="#Iyyukj8ozxFbSkbIe4Jt_pad-15" x="217267.767" y="-104000"/><use xlink:href="#Iyyukj8ozxFbSkbIe4Jt_pad-19" x="193500" y="-53120"/><use xlink:href="#Iyyukj8ozxFbSkbIe4Jt_pad-12" x="193500" y="-50580"/><use xlink:href="#Iyyukj8ozxFbSkbIe4Jt_pad-12" x="193500" y="-48040"/><use xlink:href="#Iyyukj8ozxFbSkbIe4Jt_pad-12" x="193500" y="-45500"/><path d="M 245500 -71000 245500 -56500 M 224500 -69400 225000 -68900 M 214267.767 -101000 214267.767 -86555.958 224500 -76323.725 224500 -69400 M 225000 -68900 236640 -68900 239040 -66500 M 224500 -68500 224000 -69000 224000 -76258.039 M 234500 -68500 224500 -68500 M 223934.315 -68000 232460 -68000 233960 -66500 M 223500 -76192.352 223500 -68434.315 M 210192.352 -89500 223500 -76192.352 M 223500 -68434.315 223934.315 -68000 M 202258.039 -89500 210192.352 -89500 M 240040 -48040 193500 -48040 M 241500 -52500 241500 -49500 M 236500 -57500 241500 -52500 M 228480 -64360 228480 -58454.314 M 241500 -49500 240040 -48040 M 226340 -66500 228480 -64360 M 228480 -58454.314 229434.314 -57500 236500 -57500 M 228880 -58620 228880 -66500 M 229500 -58000 228880 -58620 M 240205.686 -47640 241900 -49334.315 241900 -52665.686 M 195640 -47640 240205.686 -47640 M 241900 -52665.686 236565.686 -58000 M 193500 -45500 195640 -47640 M 236565.686 -58000 229500 -58000 M 241887.518 -76612.482 238337.927 -76612.482 M 245500 -73000 241887.518 -76612.482 M 238337.927 -76612.482 237187.927 -75462.482 M 247500 -73000 245500 -71000 M 197500 -91258.039 197500 -53120 234880 -53120 M 249000 -53000 249000 -48499.368 M 245500 -56500 249000 -53000 M 249000 -48499.368 247488.794 -46988.162 M 197500 -91258.039 199258.039 -89500 M 199258.039 -104000 197500 -102241.961 197500 -91258.039 M 201108.039 -105850 199258.039 -104000 M 212417.767 -105850 201108.039 -105850 M 214267.767 -104000 212417.767 -105850 M 203808.039 -99845.406 203341.652 -99379.019 M 203808.039 -102450 203808.039 -99845.406 M 202258.039 -104000 203808.039 -102450 M 200879.019 -99379.019 199258.039 -101000 M 203341.652 -99379.019 200879.019 -99379.019 M 224000 -76258.039 200879.019 -99379.019 M 236500 -66500 234500 -68500 M 204000 -85537.367 203341.652 -84879.019 M 202258.039 -89500 204000 -87758.039 204000 -85537.367 M 203341.652 -84879.019 200879.019 -84879.019 M 199258.039 -86500 200879.019 -84879.019 M 234880 -53120 236500 -51500 M 193500 -53120 197500 -53120 M 232810 -52650 195570 -52650 M 233960 -51500 232810 -52650 M 195570 -52650 193500 -50580 M 199258.039 -101000 199258.039 -100241.961 M 235819.206 -75462.482 237187.927 -75462.482 M 231350 -70993.276 235819.206 -75462.482 M 243500 -71000 243493.276 -70993.276 M 244500 -70000 243500 -71000 M 244500 -49976.956 244500 -70000 M 243493.276 -70993.276 233890 -70993.276 M 247488.794 -46988.162 244500 -49976.956 M 245000 -70190.409 239727.927 -75462.482 M 245000 -52016.956 245000 -70190.409 M 247488.794 -49528.162 245000 -52016.956 M 199258.039 -89500 202258.039 -86500 M 199258.039 -104000 202258.039 -101000 M 218817.767 -99817.767 218450 -99450 M 218817.767 -102450 218817.767 -99817.767 M 215817.767 -99450 214267.767 -101000 M 217267.767 -104000 218817.767 -102450 M 218450 -99450 215817.767 -99450 M 214267.767 -104000 217267.767 -101000 M 237187.927 -75462.482 237337.927 -75462.482 237452.927 -75347.482" fill="none" stroke-width="200"/></g></svg>