<svg version="1.1" xmlns="http://www.w3.org/2000/svg" xmlns:xlink="http://www.w3.org/1999/xlink" stroke-linecap="round" stroke-linejoin="round" stroke-width="0" fill-rule="evenodd" width="54.9mm" height="30.962mm" viewBox="193000 -75962 54900 30962" id="qR1gGTFSuEUzFFc3GJwp"><defs><circle cx="0" cy="0" r="400" id="qR1gGTFSuEUzFFc3GJwp_pad-1"/><circle cx="0" cy="0" r="500" id="qR1gGTFSuEUzFFc3GJwp_pad-2"/></defs><g transform="translate(0,-120962) scale(1,-1)" fill="currentColor" stroke="currentColor"><use xlink:href="#qR1gGTFSuEUzFFc3GJwp_pad-1" x="245500" y="-73000"/><use xlink:href="#qR1gGTFSuEUzFFc3GJwp_pad-1" x="247489" y="-46988"/><use xlink:href="#qR1gGTFSuEUzFFc3GJwp_pad-1" x="247489" y="-49528"/><use xlink:href="#qR1gGTFSuEUzFFc3GJwp_pad-1" x="247489" y="-52068"/><use xlink:href="#qR1gGTFSuEUzFFc3GJwp_pad-1" x="247500" y="-73000"/><use xlink:href="#qR1gGTFSuEUzFFc3GJwp_pad-2" x="193500" y="-45500"/><use xlink:href="#qR1gGTFSuEUzFFc3GJwp_pad-2" x="193500" y="-48040"/><use xlink:href="#qR1gGTFSuEUzFFc3GJwp_pad-2" x="193500" y="-50580"/><use xlink:href="#qR1gGTFSuEUzFFc3GJwp_pad-2" x="193500" y="-53120"/><use xlink:href="#qR1gGTFSuEUzFFc3GJwp_pad-2" x="223800" y="-51500"/><use xlink:href="#qR1gGTFSuEUzFFc3GJwp_pad-2" x="223800" y="-66500"/><use xlink:href="#qR1gGTFSuEUzFFc3GJwp_pad-2" x="226340" y="-51500"/><use xlink:href="#qR1gGTFSuEUzFFc3GJwp_pad-2" x="226340" y="-66500"/><use xlink:href="#qR1gGTFSuEUzFFc3GJwp_pad-2" x="228880" y="-51500"/><use xlink:href="#qR1gGTFSuEUzFFc3GJwp_pad-2" x="228880" y="-66500"/><use xlink:href="#qR1gGTFSuEUzFFc3GJwp_pad-2" x="231350" y="-70993"/><use xlink:href="#qR1gGTFSuEUzFFc3GJwp_pad-2" x="231420" y="-51500"/><use xlink:href="#qR1gGTFSuEUzFFc3GJwp_pad-2" x="231420" y="-66500"/><use xlink:href="#qR1gGTFSuEUzFFc3GJwp_pad-2" x="233890" y="-70993"/><use xlink:href="#qR1gGTFSuEUzFFc3GJwp_pad-2" x="233960" y="-51500"/><use xlink:href="#qR1gGTFSuEUzFFc3GJwp_pad-2" x="233960" y="-66500"/><use xlink:href="#qR1gGTFSuEUzFFc3GJwp_pad-2" x="236500" y="-51500"/><use xlink:href="#qR1gGTFSuEUzFFc3GJwp_pad-2" x="236500" y="-66500"/><use xlink:href="#qR1gGTFSuEUzFFc3GJwp_pad-2" x="237188" y="-75462"/><use xlink:href="#qR1gGTFSuEUzFFc3GJwp_pad-2" x="239040" y="-51500"/><use xlink:href="#qR1gGTFSuEUzFFc3GJwp_pad-2" x="239040" y="-66500"/><use xlink:href="#qR1gGTFSuEUzFFc3GJwp_pad-2" x="239728" y="-75462"/></g></svg>