<svg version="1.1" xmlns="http://www.w3.org/2000/svg" xmlns:xlink="http://www.w3.org/1999/xlink" stroke-linecap="round" stroke-linejoin="round" stroke-width="0" fill-rule="evenodd" width="55.850010000000005mm" height="60.850010000000005mm" viewBox="192650 -105500.01 55850.01 60850.01" id="yt8biDGb3y3SctnEZ1bo"><defs><circle cx="0" cy="0" r="800" id="yt8biDGb3y3SctnEZ1bo_pad-10"/><g id="yt8biDGb3y3SctnEZ1bo_pad-11"><polygon points="550,550 -550,550 -550,-550 550,-550"/><circle cx="550" cy="550" r="250"/><circle cx="-550" cy="550" r="250"/><circle cx="-550" cy="-550" r="250"/><circle cx="550" cy="-550" r="250"/><polygon points="550,300 -550,300 -550,800 550,800"/><polygon points="-300,550 -300,-550 -800,-550 -800,550"/><polygon points="-550,-800 550,-800 550,-300 -550,-300"/><polygon points="800,-550 800,550 300,550 300,-550"/></g><circle cx="0" cy="0" r="850" id="yt8biDGb3y3SctnEZ1bo_pad-12"/><rect x="-850" y="-850" width="1700" height="1700" id="yt8biDGb3y3SctnEZ1bo_pad-13"/><g id="yt8biDGb3y3SctnEZ1bo_pad-14"><polygon points="-0.01,-0.01 0.01,-0.01 0.01,0.01 -0.01,0.01"/><circle cx="-0.01" cy="-0.01" r="2500"/><circle cx="0.01" cy="-0.01" r="2500"/><circle cx="0.01" cy="0.01" r="2500"/><circle cx="-0.01" cy="0.01" r="2500"/><polygon points="-0.01,-2500.01 0.01,-2500.01 0.01,2499.99 -0.01,2499.99"/><polygon points="2500.01,-0.01 2500.01,0.01 -2499.99,0.01 -2499.99,-0.01"/><polygon points="0.01,-2499.99 -0.01,-2499.99 -0.01,2500.01 0.01,2500.01"/><polygon points="2499.99,0.01 2499.99,-0.01 -2500.01,-0.01 -2500.01,0.01"/></g><g id="yt8biDGb3y3SctnEZ1bo_pad-15"><polygon points="-875,-875 875,-875 875,875 -875,875"/><circle cx="-875" cy="-875" r="375"/><circle cx="875" cy="-875" r="375"/><circle cx="875" cy="875" r="375"/><circle cx="-875" cy="875" r="375"/><polygon points="-875,-1250 875,-1250 875,-500 -875,-500"/><polygon points="1250,-875 1250,875 500,875 500,-875"/><polygon points="875,500 -875,500 -875,1250 875,1250"/><polygon points="-500,875 -500,-875 -1250,-875 -1250,875"/></g><g id="yt8biDGb3y3SctnEZ1bo_pad-16"><polygon points="-0.01,-0.01 0.01,-0.01 0.01,0.01 -0.01,0.01"/><circle cx="-0.01" cy="-0.01" r="1000"/><circle cx="0.01" cy="-0.01" r="1000"/><circle cx="0.01" cy="0.01" r="1000"/><circle cx="-0.01" cy="0.01" r="1000"/><polygon points="-0.01,-1000.01 0.01,-1000.01 0.01,999.99 -0.01,999.99"/><polygon points="1000.01,-0.01 1000.01,0.01 -999.99,0.01 -999.99,-0.01"/><polygon points="0.01,-999.99 -0.01,-999.99 -0.01,1000.01 0.01,1000.01"/><polygon points="999.99,0.01 999.99,-0.01 -1000.01,-0.01 -1000.01,0.01"/></g><g id="yt8biDGb3y3SctnEZ1bo_pad-17"><polygon points="-0.01,-0.01 0.01,-0.01 0.01,0.01 -0.01,0.01"/><circle cx="-0.01" cy="-0.01" r="2000"/><circle cx="0.01" cy="-0.01" r="2000"/><circle cx="0.01" cy="0.01" r="2000"/><circle cx="-0.01" cy="0.01" r="2000"/><polygon points="-0.01,-2000.01 0.01,-2000.01 0.01,1999.99 -0.01,1999.99"/><polygon points="2000.01,-0.01 2000.01,0.01 -1999.99,0.01 -1999.99,-0.01"/><polygon points="0.01,-1999.99 -0.01,-1999.99 -0.01,2000.01 0.01,2000.01"/><polygon points="1999.99,0.01 1999.99,-0.01 -2000.01,-0.01 -2000.01,0.01"/></g><rect x="-750" y="-750" width="1500" height="1500" id="yt8biDGb3y3SctnEZ1bo_pad-18"/><g id="yt8biDGb3y3SctnEZ1bo_pad-19"><polygon points="680,-680 680,680 -680,680 -680,-680"/><circle cx="680" cy="-680" r="170"/><circle cx="680" cy="680" r="170"/><circle cx="-680" cy="680" r="170"/><circle cx="-680" cy="-680" r="170"/><polygon points="850,-680 850,680 510,680 510,-680"/><polygon points="680,510 -680,510 -680,850 680,850"/><polygon points="-510,680 -510,-680 -850,-680 -850,680"/><polygon points="-680,-850 680,-850 680,-510 -680,-510"/></g></defs><g transform="translate(0,-150150.00999999998) scale(1,-1)" fill="currentColor" stroke="currentColor"><use xlink:href="#yt8biDGb3y3SctnEZ1bo_pad-10" x="245500" y="-73000"/><use xlink:href="#yt8biDGb3y3SctnEZ1bo_pad-11" x="247500" y="-73000"/><use xlink:href="#yt8biDGb3y3SctnEZ1bo_pad-12" x="233890" y="-70993.276"/><use xlink:href="#yt8biDGb3y3SctnEZ1bo_pad-13" x="231350" y="-70993.276"/><use xlink:href="#yt8biDGb3y3SctnEZ1bo_pad-12" x="239040" y="-51500"/><use xlink:href="#yt8biDGb3y3SctnEZ1bo_pad-12" x="236500" y="-51500"/><use xlink:href="#yt8biDGb3y3SctnEZ1bo_pad-12" x="233960" y="-51500"/><use xlink:href="#yt8biDGb3y3SctnEZ1bo_pad-12" x="231420" y="-51500"/><use xlink:href="#yt8biDGb3y3SctnEZ1bo_pad-12" x="228880" y="-51500"/><use xlink:href="#yt8biDGb3y3SctnEZ1bo_pad-12" x="226340" y="-51500"/><use xlink:href="#yt8biDGb3y3SctnEZ1bo_pad-12" x="223800" y="-51500"/><use xlink:href="#yt8biDGb3y3SctnEZ1bo_pad-12" x="239040" y="-66500"/><use xlink:href="#yt8biDGb3y3SctnEZ1bo_pad-12" x="236500" y="-66500"/><use xlink:href="#yt8biDGb3y3SctnEZ1bo_pad-12" x="233960" y="-66500"/><use xlink:href="#yt8biDGb3y3SctnEZ1bo_pad-12" x="231420" y="-66500"/><use xlink:href="#yt8biDGb3y3SctnEZ1bo_pad-12" x="228880" y="-66500"/><use xlink:href="#yt8biDGb3y3SctnEZ1bo_pad-12" x="226340" y="-66500"/><use xlink:href="#yt8biDGb3y3SctnEZ1bo_pad-12" x="223800" y="-66500"/><use xlink:href="#yt8biDGb3y3SctnEZ1bo_pad-14" x="232750" y="-62000"/><use xlink:href="#yt8biDGb3y3SctnEZ1bo_pad-15" x="202258.039" y="-104000"/><use xlink:href="#yt8biDGb3y3SctnEZ1bo_pad-15" x="199258.039" y="-101000"/><use xlink:href="#yt8biDGb3y3SctnEZ1bo_pad-15" x="202258.039" y="-101000"/><use xlink:href="#yt8biDGb3y3SctnEZ1bo_pad-15" x="199258.039" y="-104000"/><use xlink:href="#yt8biDGb3y3SctnEZ1bo_pad-15" x="202258.039" y="-89500"/><use xlink:href="#yt8biDGb3y3SctnEZ1bo_pad-15" x="199258.039" y="-86500"/><use xlink:href="#yt8biDGb3y3SctnEZ1bo_pad-15" x="202258.039" y="-86500"/><use xlink:href="#yt8biDGb3y3SctnEZ1bo_pad-15" x="199258.039" y="-89500"/><use xlink:href="#yt8biDGb3y3SctnEZ1bo_pad-13" x="239727.927" y="-75462.482"/><use xlink:href="#yt8biDGb3y3SctnEZ1bo_pad-12" x="237187.927" y="-75462.482"/><use xlink:href="#yt8biDGb3y3SctnEZ1bo_pad-16" x="194767.767" y="-67500"/><use xlink:href="#yt8biDGb3y3SctnEZ1bo_pad-16" x="247500" y="-67500"/><use xlink:href="#yt8biDGb3y3SctnEZ1bo_pad-17" x="234500" y="-103500"/><use xlink:href="#yt8biDGb3y3SctnEZ1bo_pad-17" x="207767.767" y="-103500"/><use xlink:href="#yt8biDGb3y3SctnEZ1bo_pad-18" x="247488.794" y="-49528.162"/><use xlink:href="#yt8biDGb3y3SctnEZ1bo_pad-10" x="247488.794" y="-52068.162"/><use xlink:href="#yt8biDGb3y3SctnEZ1bo_pad-10" x="247488.794" y="-46988.162"/><use xlink:href="#yt8biDGb3y3SctnEZ1bo_pad-15" x="214267.767" y="-104000"/><use xlink:href="#yt8biDGb3y3SctnEZ1bo_pad-15" x="217267.767" y="-101000"/><use xlink:href="#yt8biDGb3y3SctnEZ1bo_pad-15" x="214267.767" y="-101000"/><use xlink:href="#yt8biDGb3y3SctnEZ1bo_pad-15" x="217267.767" y="-104000"/><use xlink:href="#yt8biDGb3y3SctnEZ1bo_pad-19" x="193500" y="-53120"/><use xlink:href="#yt8biDGb3y3SctnEZ1bo_pad-12" x="193500" y="-50580"/><use xlink:href="#yt8biDGb3y3SctnEZ1bo_pad-12" x="193500" y="-48040"/><use xlink:href="#yt8biDGb3y3SctnEZ1bo_pad-12" x="193500" y="-45500"/></g></svg>