<svg version="1.1" xmlns="http://www.w3.org/2000/svg" xmlns:xlink="http://www.w3.org/1999/xlink" stroke-linecap="round" stroke-linejoin="round" stroke-width="0" fill-rule="evenodd" width="58.528974999999996mm" height="35.127301mm" viewBox="190379.819 -78377.301 58528.975 35127.301" id="JhhrKxf6xsGaw7udniuT"><g transform="translate(0,-121627.301) scale(1,-1)" fill="currentColor" stroke="currentColor"><path d="M 235592.249 -71067.142 236354.154 -71067.142 M 228592.249 -71067.142 229354.154 -71067.142 M 228973.201 -71448.095 228973.201 -70686.19 M 230190.475 -68931.009 230333.332 -68978.628 230380.951 -69026.247 230428.57 -69121.485 230428.57 -69264.342 230380.951 -69359.58 230333.332 -69407.2 230238.094 -69454.819 229857.142 -69454.819 229857.142 -68454.819 230190.475 -68454.819 230285.713 -68502.438 230333.332 -68550.057 230380.951 -68645.295 230380.951 -68740.533 230333.332 -68835.771 230285.713 -68883.39 230190.475 -68931.009 229857.142 -68931.009 M 231285.713 -69454.819 231285.713 -68931.009 231238.094 -68835.771 231142.856 -68788.152 230952.38 -68788.152 230857.142 -68835.771 M 231285.713 -69407.2 231190.475 -69454.819 230952.38 -69454.819 230857.142 -69407.2 230809.523 -69311.961 230809.523 -69216.723 230857.142 -69121.485 230952.38 -69073.866 231190.475 -69073.866 231285.713 -69026.247 M 231619.047 -68788.152 231999.999 -68788.152 M 231761.904 -68454.819 231761.904 -69311.961 231809.523 -69407.2 231904.761 -69454.819 231999.999 -69454.819 M 233285.714 -68454.819 233476.19 -68454.819 233571.428 -68502.438 233666.666 -68597.676 233714.285 -68788.152 233714.285 -69121.485 233666.666 -69311.961 233571.428 -69407.2 233476.19 -69454.819 233285.714 -69454.819 233190.476 -69407.2 233095.238 -69311.961 233047.619 -69121.485 233047.619 -68788.152 233095.238 -68597.676 233190.476 -68502.438 233285.714 -68454.819 M 234571.428 -68788.152 234571.428 -69454.819 M 234142.857 -68788.152 234142.857 -69311.961 234190.476 -69407.2 234285.714 -69454.819 234428.571 -69454.819 234523.809 -69407.2 234571.428 -69359.58 M 234904.762 -68788.152 235285.714 -68788.152 M 235047.619 -68454.819 235047.619 -69311.961 235095.238 -69407.2 235190.476 -69454.819 235285.714 -69454.819 M 235096.975 -75536.348 235858.88 -75536.348 M 241096.975 -75536.348 241858.88 -75536.348 M 241477.927 -75917.301 241477.927 -75155.396 M 238153.949 -77302.301 238153.949 -78016.586 238106.33 -78159.443 238011.092 -78254.682 237868.235 -78302.301 237772.997 -78302.301 M 239058.711 -77302.301 238868.235 -77302.301 238772.997 -77349.92 238725.378 -77397.539 238630.14 -77540.396 238582.521 -77730.872 238582.521 -78111.824 238630.14 -78207.062 238677.759 -78254.682 238772.997 -78302.301 238963.473 -78302.301 239058.711 -78254.682 239106.33 -78207.062 239153.949 -78111.824 239153.949 -77873.729 239106.33 -77778.491 239058.711 -77730.872 238963.473 -77683.253 238772.997 -77683.253 238677.759 -77730.872 238630.14 -77778.491 238582.521 -77873.729 M 245355.994 -50861.494 245403.613 -50718.637 245403.613 -50480.542 245355.994 -50385.304 245308.374 -50337.685 245213.136 -50290.066 245117.898 -50290.066 245022.66 -50337.685 244975.041 -50385.304 244927.422 -50480.542 244879.803 -50671.018 244832.184 -50766.256 244784.565 -50813.875 244689.327 -50861.494 244594.089 -50861.494 244498.851 -50813.875 244451.232 -50766.256 244403.613 -50671.018 244403.613 -50432.923 244451.232 -50290.066 M 244403.613 -49956.732 245403.613 -49718.637 244689.327 -49528.161 245403.613 -49337.685 244403.613 -49099.59 M 244736.946 -48290.066 245403.613 -48290.066 M 244355.994 -48528.161 245070.279 -48766.256 245070.279 -48147.209 M 190454.819 -49881.904 191264.342 -49881.904 191359.58 -49834.285 191407.2 -49786.666 191454.819 -49691.428 191454.819 -49500.952 191407.2 -49405.714 191359.58 -49358.095 191264.342 -49310.476 190454.819 -49310.476 M 191454.819 -48310.476 191454.819 -48881.904 M 191454.819 -48596.19 190454.819 -48596.19 190597.676 -48691.428 190692.914 -48786.666 190740.533 -48881.904" fill="none" stroke-width="150"/><path d="M 246128.794 -44418.162 248848.794 -44418.162 248848.794 -54638.162 246128.794 -54638.162 246128.794 -44418.162 M 193500 -54500 194880 -54500 M 194880 -53120 194880 -54500 M 192000 -43310 230000 -43310 230000 -55310 192000 -55310 192000 -43310" fill="none" stroke-width="120"/></g></svg>