<svg version="1.1" xmlns="http://www.w3.org/2000/svg" xmlns:xlink="http://www.w3.org/1999/xlink" stroke-linecap="round" stroke-linejoin="round" stroke-width="0" fill-rule="evenodd" clip-rule="evenodd" id="IYNY3DYO8fAwMz7-UM0Y_top" viewBox="192267.767 -143500 57732.23300000001 100000" width="57.73223300000001mm" height="100mm" class="w-100 h-100"><defs><style>.IYNY3DYO8fAwMz7-UM0Y_fr4 {color: #666666;}
.IYNY3DYO8fAwMz7-UM0Y_cu {color: #cccccc;}
.IYNY3DYO8fAwMz7-UM0Y_cf {color: #cc9933;}
.IYNY3DYO8fAwMz7-UM0Y_sm {color: #004200; opacity: 0.75;}
.IYNY3DYO8fAwMz7-UM0Y_ss {color: #ffffff;}
.IYNY3DYO8fAwMz7-UM0Y_sp {color: #999999;}
.IYNY3DYO8fAwMz7-UM0Y_out {color: #000000;}</style><circle cx="0" cy="0" r="800" id="Iyyukj8ozxFbSkbIe4Jt_pad-10"/><g id="Iyyukj8ozxFbSkbIe4Jt_pad-11"><polygon points="550,550 -550,550 -550,-550 550,-550"/><circle cx="550" cy="550" r="250"/><circle cx="-550" cy="550" r="250"/><circle cx="-550" cy="-550" r="250"/><circle cx="550" cy="-550" r="250"/><polygon points="550,300 -550,300 -550,800 550,800"/><polygon points="-300,550 -300,-550 -800,-550 -800,550"/><polygon points="-550,-800 550,-800 550,-300 -550,-300"/><polygon points="800,-550 800,550 300,550 300,-550"/></g><circle cx="0" cy="0" r="850" id="Iyyukj8ozxFbSkbIe4Jt_pad-12"/><rect x="-850" y="-850" width="1700" height="1700" id="Iyyukj8ozxFbSkbIe4Jt_pad-13"/><g id="Iyyukj8ozxFbSkbIe4Jt_pad-14"><polygon points="-0.01,-0.01 0.01,-0.01 0.01,0.01 -0.01,0.01"/><circle cx="-0.01" cy="-0.01" r="2500"/><circle cx="0.01" cy="-0.01" r="2500"/><circle cx="0.01" cy="0.01" r="2500"/><circle cx="-0.01" cy="0.01" r="2500"/><polygon points="-0.01,-2500.01 0.01,-2500.01 0.01,2499.99 -0.01,2499.99"/><polygon points="2500.01,-0.01 2500.01,0.01 -2499.99,0.01 -2499.99,-0.01"/><polygon points="0.01,-2499.99 -0.01,-2499.99 -0.01,2500.01 0.01,2500.01"/><polygon points="2499.99,0.01 2499.99,-0.01 -2500.01,-0.01 -2500.01,0.01"/></g><g id="Iyyukj8ozxFbSkbIe4Jt_pad-15"><polygon points="-875,-875 875,-875 875,875 -875,875"/><circle cx="-875" cy="-875" r="375"/><circle cx="875" cy="-875" r="375"/><circle cx="875" cy="875" r="375"/><circle cx="-875" cy="875" r="375"/><polygon points="-875,-1250 875,-1250 875,-500 -875,-500"/><polygon points="1250,-875 1250,875 500,875 500,-875"/><polygon points="875,500 -875,500 -875,1250 875,1250"/><polygon points="-500,875 -500,-875 -1250,-875 -1250,875"/></g><g id="Iyyukj8ozxFbSkbIe4Jt_pad-16"><polygon points="-0.01,-0.01 0.01,-0.01 0.01,0.01 -0.01,0.01"/><circle cx="-0.01" cy="-0.01" r="1000"/><circle cx="0.01" cy="-0.01" r="1000"/><circle cx="0.01" cy="0.01" r="1000"/><circle cx="-0.01" cy="0.01" r="1000"/><polygon points="-0.01,-1000.01 0.01,-1000.01 0.01,999.99 -0.01,999.99"/><polygon points="1000.01,-0.01 1000.01,0.01 -999.99,0.01 -999.99,-0.01"/><polygon points="0.01,-999.99 -0.01,-999.99 -0.01,1000.01 0.01,1000.01"/><polygon points="999.99,0.01 999.99,-0.01 -1000.01,-0.01 -1000.01,0.01"/></g><g id="Iyyukj8ozxFbSkbIe4Jt_pad-17"><polygon points="-0.01,-0.01 0.01,-0.01 0.01,0.01 -0.01,0.01"/><circle cx="-0.01" cy="-0.01" r="2000"/><circle cx="0.01" cy="-0.01" r="2000"/><circle cx="0.01" cy="0.01" r="2000"/><circle cx="-0.01" cy="0.01" r="2000"/><polygon points="-0.01,-2000.01 0.01,-2000.01 0.01,1999.99 -0.01,1999.99"/><polygon points="2000.01,-0.01 2000.01,0.01 -1999.99,0.01 -1999.99,-0.01"/><polygon points="0.01,-1999.99 -0.01,-1999.99 -0.01,2000.01 0.01,2000.01"/><polygon points="1999.99,0.01 1999.99,-0.01 -2000.01,-0.01 -2000.01,0.01"/></g><rect x="-750" y="-750" width="1500" height="1500" id="Iyyukj8ozxFbSkbIe4Jt_pad-18"/><g id="Iyyukj8ozxFbSkbIe4Jt_pad-19"><polygon points="680,-680 680,680 -680,680 -680,-680"/><circle cx="680" cy="-680" r="170"/><circle cx="680" cy="680" r="170"/><circle cx="-680" cy="680" r="170"/><circle cx="-680" cy="-680" r="170"/><polygon points="850,-680 850,680 510,680 510,-680"/><polygon points="680,510 -680,510 -680,850 680,850"/><polygon points="-510,680 -510,-680 -850,-680 -850,680"/><polygon points="-680,-850 680,-850 680,-510 -680,-510"/></g><circle cx="0" cy="0" r="800" id="yt8biDGb3y3SctnEZ1bo_pad-10"/><g id="yt8biDGb3y3SctnEZ1bo_pad-11"><polygon points="550,550 -550,550 -550,-550 550,-550"/><circle cx="550" cy="550" r="250"/><circle cx="-550" cy="550" r="250"/><circle cx="-550" cy="-550" r="250"/><circle cx="550" cy="-550" r="250"/><polygon points="550,300 -550,300 -550,800 550,800"/><polygon points="-300,550 -300,-550 -800,-550 -800,550"/><polygon points="-550,-800 550,-800 550,-300 -550,-300"/><polygon points="800,-550 800,550 300,550 300,-550"/></g><circle cx="0" cy="0" r="850" id="yt8biDGb3y3SctnEZ1bo_pad-12"/><rect x="-850" y="-850" width="1700" height="1700" id="yt8biDGb3y3SctnEZ1bo_pad-13"/><g id="yt8biDGb3y3SctnEZ1bo_pad-14"><polygon points="-0.01,-0.01 0.01,-0.01 0.01,0.01 -0.01,0.01"/><circle cx="-0.01" cy="-0.01" r="2500"/><circle cx="0.01" cy="-0.01" r="2500"/><circle cx="0.01" cy="0.01" r="2500"/><circle cx="-0.01" cy="0.01" r="2500"/><polygon points="-0.01,-2500.01 0.01,-2500.01 0.01,2499.99 -0.01,2499.99"/><polygon points="2500.01,-0.01 2500.01,0.01 -2499.99,0.01 -2499.99,-0.01"/><polygon points="0.01,-2499.99 -0.01,-2499.99 -0.01,2500.01 0.01,2500.01"/><polygon points="2499.99,0.01 2499.99,-0.01 -2500.01,-0.01 -2500.01,0.01"/></g><g id="yt8biDGb3y3SctnEZ1bo_pad-15"><polygon points="-875,-875 875,-875 875,875 -875,875"/><circle cx="-875" cy="-875" r="375"/><circle cx="875" cy="-875" r="375"/><circle cx="875" cy="875" r="375"/><circle cx="-875" cy="875" r="375"/><polygon points="-875,-1250 875,-1250 875,-500 -875,-500"/><polygon points="1250,-875 1250,875 500,875 500,-875"/><polygon points="875,500 -875,500 -875,1250 875,1250"/><polygon points="-500,875 -500,-875 -1250,-875 -1250,875"/></g><g id="yt8biDGb3y3SctnEZ1bo_pad-16"><polygon points="-0.01,-0.01 0.01,-0.01 0.01,0.01 -0.01,0.01"/><circle cx="-0.01" cy="-0.01" r="1000"/><circle cx="0.01" cy="-0.01" r="1000"/><circle cx="0.01" cy="0.01" r="1000"/><circle cx="-0.01" cy="0.01" r="1000"/><polygon points="-0.01,-1000.01 0.01,-1000.01 0.01,999.99 -0.01,999.99"/><polygon points="1000.01,-0.01 1000.01,0.01 -999.99,0.01 -999.99,-0.01"/><polygon points="0.01,-999.99 -0.01,-999.99 -0.01,1000.01 0.01,1000.01"/><polygon points="999.99,0.01 999.99,-0.01 -1000.01,-0.01 -1000.01,0.01"/></g><g id="yt8biDGb3y3SctnEZ1bo_pad-17"><polygon points="-0.01,-0.01 0.01,-0.01 0.01,0.01 -0.01,0.01"/><circle cx="-0.01" cy="-0.01" r="2000"/><circle cx="0.01" cy="-0.01" r="2000"/><circle cx="0.01" cy="0.01" r="2000"/><circle cx="-0.01" cy="0.01" r="2000"/><polygon points="-0.01,-2000.01 0.01,-2000.01 0.01,1999.99 -0.01,1999.99"/><polygon points="2000.01,-0.01 2000.01,0.01 -1999.99,0.01 -1999.99,-0.01"/><polygon points="0.01,-1999.99 -0.01,-1999.99 -0.01,2000.01 0.01,2000.01"/><polygon points="1999.99,0.01 1999.99,-0.01 -2000.01,-0.01 -2000.01,0.01"/></g><rect x="-750" y="-750" width="1500" height="1500" id="yt8biDGb3y3SctnEZ1bo_pad-18"/><g id="yt8biDGb3y3SctnEZ1bo_pad-19"><polygon points="680,-680 680,680 -680,680 -680,-680"/><circle cx="680" cy="-680" r="170"/><circle cx="680" cy="680" r="170"/><circle cx="-680" cy="680" r="170"/><circle cx="-680" cy="-680" r="170"/><polygon points="850,-680 850,680 510,680 510,-680"/><polygon points="680,510 -680,510 -680,850 680,850"/><polygon points="-510,680 -510,-680 -850,-680 -850,680"/><polygon points="-680,-850 680,-850 680,-510 -680,-510"/></g><circle cx="0" cy="0" r="1000" id="BnULextIQ18So3uC-exn_pad-1"/><circle cx="0" cy="0" r="2000" id="BnULextIQ18So3uC-exn_pad-2"/><circle cx="0" cy="0" r="2500" id="BnULextIQ18So3uC-exn_pad-3"/><circle cx="0" cy="0" r="400" id="qR1gGTFSuEUzFFc3GJwp_pad-1"/><circle cx="0" cy="0" r="500" id="qR1gGTFSuEUzFFc3GJwp_pad-2"/><g id="IYNY3DYO8fAwMz7-UM0Y_top_copper"><use xlink:href="#Iyyukj8ozxFbSkbIe4Jt_pad-10" x="245500" y="-73000"/><use xlink:href="#Iyyukj8ozxFbSkbIe4Jt_pad-11" x="247500" y="-73000"/><use xlink:href="#Iyyukj8ozxFbSkbIe4Jt_pad-12" x="233890" y="-70993.276"/><use xlink:href="#Iyyukj8ozxFbSkbIe4Jt_pad-13" x="231350" y="-70993.276"/><use xlink:href="#Iyyukj8ozxFbSkbIe4Jt_pad-12" x="239040" y="-51500"/><use xlink:href="#Iyyukj8ozxFbSkbIe4Jt_pad-12" x="236500" y="-51500"/><use xlink:href="#Iyyukj8ozxFbSkbIe4Jt_pad-12" x="233960" y="-51500"/><use xlink:href="#Iyyukj8ozxFbSkbIe4Jt_pad-12" x="231420" y="-51500"/><use xlink:href="#Iyyukj8ozxFbSkbIe4Jt_pad-12" x="228880" y="-51500"/><use xlink:href="#Iyyukj8ozxFbSkbIe4Jt_pad-12" x="226340" y="-51500"/><use xlink:href="#Iyyukj8ozxFbSkbIe4Jt_pad-12" x="223800" y="-51500"/><use xlink:href="#Iyyukj8ozxFbSkbIe4Jt_pad-12" x="239040" y="-66500"/><use xlink:href="#Iyyukj8ozxFbSkbIe4Jt_pad-12" x="236500" y="-66500"/><use xlink:href="#Iyyukj8ozxFbSkbIe4Jt_pad-12" x="233960" y="-66500"/><use xlink:href="#Iyyukj8ozxFbSkbIe4Jt_pad-12" x="231420" y="-66500"/><use xlink:href="#Iyyukj8ozxFbSkbIe4Jt_pad-12" x="228880" y="-66500"/><use xlink:href="#Iyyukj8ozxFbSkbIe4Jt_pad-12" x="226340" y="-66500"/><use xlink:href="#Iyyukj8ozxFbSkbIe4Jt_pad-12" x="223800" y="-66500"/><use xlink:href="#Iyyukj8ozxFbSkbIe4Jt_pad-14" x="232750" y="-62000"/><use xlink:href="#Iyyukj8ozxFbSkbIe4Jt_pad-15" x="202258.039" y="-104000"/><use xlink:href="#Iyyukj8ozxFbSkbIe4Jt_pad-15" x="199258.039" y="-101000"/><use xlink:href="#Iyyukj8ozxFbSkbIe4Jt_pad-15" x="202258.039" y="-101000"/><use xlink:href="#Iyyukj8ozxFbSkbIe4Jt_pad-15" x="199258.039" y="-104000"/><use xlink:href="#Iyyukj8ozxFbSkbIe4Jt_pad-15" x="202258.039" y="-89500"/><use xlink:href="#Iyyukj8ozxFbSkbIe4Jt_pad-15" x="199258.039" y="-86500"/><use xlink:href="#Iyyukj8ozxFbSkbIe4Jt_pad-15" x="202258.039" y="-86500"/><use xlink:href="#Iyyukj8ozxFbSkbIe4Jt_pad-15" x="199258.039" y="-89500"/><use xlink:href="#Iyyukj8ozxFbSkbIe4Jt_pad-13" x="239727.927" y="-75462.482"/><use xlink:href="#Iyyukj8ozxFbSkbIe4Jt_pad-12" x="237187.927" y="-75462.482"/><use xlink:href="#Iyyukj8ozxFbSkbIe4Jt_pad-16" x="194767.767" y="-67500"/><use xlink:href="#Iyyukj8ozxFbSkbIe4Jt_pad-16" x="247500" y="-67500"/><use xlink:href="#Iyyukj8ozxFbSkbIe4Jt_pad-17" x="234500" y="-103500"/><use xlink:href="#Iyyukj8ozxFbSkbIe4Jt_pad-17" x="207767.767" y="-103500"/><use xlink:href="#Iyyukj8ozxFbSkbIe4Jt_pad-18" x="247488.794" y="-49528.162"/><use xlink:href="#Iyyukj8ozxFbSkbIe4Jt_pad-10" x="247488.794" y="-52068.162"/><use xlink:href="#Iyyukj8ozxFbSkbIe4Jt_pad-10" x="247488.794" y="-46988.162"/><use xlink:href="#Iyyukj8ozxFbSkbIe4Jt_pad-15" x="214267.767" y="-104000"/><use xlink:href="#Iyyukj8ozxFbSkbIe4Jt_pad-15" x="217267.767" y="-101000"/><use xlink:href="#Iyyukj8ozxFbSkbIe4Jt_pad-15" x="214267.767" y="-101000"/><use xlink:href="#Iyyukj8ozxFbSkbIe4Jt_pad-15" x="217267.767" y="-104000"/><use xlink:href="#Iyyukj8ozxFbSkbIe4Jt_pad-19" x="193500" y="-53120"/><use xlink:href="#Iyyukj8ozxFbSkbIe4Jt_pad-12" x="193500" y="-50580"/><use xlink:href="#Iyyukj8ozxFbSkbIe4Jt_pad-12" x="193500" y="-48040"/><use xlink:href="#Iyyukj8ozxFbSkbIe4Jt_pad-12" x="193500" y="-45500"/><path d="M 245500 -71000 245500 -56500 M 224500 -69400 225000 -68900 M 214267.767 -101000 214267.767 -86555.958 224500 -76323.725 224500 -69400 M 225000 -68900 236640 -68900 239040 -66500 M 224500 -68500 224000 -69000 224000 -76258.039 M 234500 -68500 224500 -68500 M 223934.315 -68000 232460 -68000 233960 -66500 M 223500 -76192.352 223500 -68434.315 M 210192.352 -89500 223500 -76192.352 M 223500 -68434.315 223934.315 -68000 M 202258.039 -89500 210192.352 -89500 M 240040 -48040 193500 -48040 M 241500 -52500 241500 -49500 M 236500 -57500 241500 -52500 M 228480 -64360 228480 -58454.314 M 241500 -49500 240040 -48040 M 226340 -66500 228480 -64360 M 228480 -58454.314 229434.314 -57500 236500 -57500 M 228880 -58620 228880 -66500 M 229500 -58000 228880 -58620 M 240205.686 -47640 241900 -49334.315 241900 -52665.686 M 195640 -47640 240205.686 -47640 M 241900 -52665.686 236565.686 -58000 M 193500 -45500 195640 -47640 M 236565.686 -58000 229500 -58000 M 241887.518 -76612.482 238337.927 -76612.482 M 245500 -73000 241887.518 -76612.482 M 238337.927 -76612.482 237187.927 -75462.482 M 247500 -73000 245500 -71000 M 197500 -91258.039 197500 -53120 234880 -53120 M 249000 -53000 249000 -48499.368 M 245500 -56500 249000 -53000 M 249000 -48499.368 247488.794 -46988.162 M 197500 -91258.039 199258.039 -89500 M 199258.039 -104000 197500 -102241.961 197500 -91258.039 M 201108.039 -105850 199258.039 -104000 M 212417.767 -105850 201108.039 -105850 M 214267.767 -104000 212417.767 -105850 M 203808.039 -99845.406 203341.652 -99379.019 M 203808.039 -102450 203808.039 -99845.406 M 202258.039 -104000 203808.039 -102450 M 200879.019 -99379.019 199258.039 -101000 M 203341.652 -99379.019 200879.019 -99379.019 M 224000 -76258.039 200879.019 -99379.019 M 236500 -66500 234500 -68500 M 204000 -85537.367 203341.652 -84879.019 M 202258.039 -89500 204000 -87758.039 204000 -85537.367 M 203341.652 -84879.019 200879.019 -84879.019 M 199258.039 -86500 200879.019 -84879.019 M 234880 -53120 236500 -51500 M 193500 -53120 197500 -53120 M 232810 -52650 195570 -52650 M 233960 -51500 232810 -52650 M 195570 -52650 193500 -50580 M 199258.039 -101000 199258.039 -100241.961 M 235819.206 -75462.482 237187.927 -75462.482 M 231350 -70993.276 235819.206 -75462.482 M 243500 -71000 243493.276 -70993.276 M 244500 -70000 243500 -71000 M 244500 -49976.956 244500 -70000 M 243493.276 -70993.276 233890 -70993.276 M 247488.794 -46988.162 244500 -49976.956 M 245000 -70190.409 239727.927 -75462.482 M 245000 -52016.956 245000 -70190.409 M 247488.794 -49528.162 245000 -52016.956 M 199258.039 -89500 202258.039 -86500 M 199258.039 -104000 202258.039 -101000 M 218817.767 -99817.767 218450 -99450 M 218817.767 -102450 218817.767 -99817.767 M 215817.767 -99450 214267.767 -101000 M 217267.767 -104000 218817.767 -102450 M 218450 -99450 215817.767 -99450 M 214267.767 -104000 217267.767 -101000 M 237187.927 -75462.482 237337.927 -75462.482 237452.927 -75347.482" fill="none" stroke-width="200"/></g><g id="IYNY3DYO8fAwMz7-UM0Y_top_silkscreen"><path d="M 235592.249 -71067.142 236354.154 -71067.142 M 228592.249 -71067.142 229354.154 -71067.142 M 228973.201 -71448.095 228973.201 -70686.19 M 230190.475 -68931.009 230333.332 -68978.628 230380.951 -69026.247 230428.57 -69121.485 230428.57 -69264.342 230380.951 -69359.58 230333.332 -69407.2 230238.094 -69454.819 229857.142 -69454.819 229857.142 -68454.819 230190.475 -68454.819 230285.713 -68502.438 230333.332 -68550.057 230380.951 -68645.295 230380.951 -68740.533 230333.332 -68835.771 230285.713 -68883.39 230190.475 -68931.009 229857.142 -68931.009 M 231285.713 -69454.819 231285.713 -68931.009 231238.094 -68835.771 231142.856 -68788.152 230952.38 -68788.152 230857.142 -68835.771 M 231285.713 -69407.2 231190.475 -69454.819 230952.38 -69454.819 230857.142 -69407.2 230809.523 -69311.961 230809.523 -69216.723 230857.142 -69121.485 230952.38 -69073.866 231190.475 -69073.866 231285.713 -69026.247 M 231619.047 -68788.152 231999.999 -68788.152 M 231761.904 -68454.819 231761.904 -69311.961 231809.523 -69407.2 231904.761 -69454.819 231999.999 -69454.819 M 233285.714 -68454.819 233476.19 -68454.819 233571.428 -68502.438 233666.666 -68597.676 233714.285 -68788.152 233714.285 -69121.485 233666.666 -69311.961 233571.428 -69407.2 233476.19 -69454.819 233285.714 -69454.819 233190.476 -69407.2 233095.238 -69311.961 233047.619 -69121.485 233047.619 -68788.152 233095.238 -68597.676 233190.476 -68502.438 233285.714 -68454.819 M 234571.428 -68788.152 234571.428 -69454.819 M 234142.857 -68788.152 234142.857 -69311.961 234190.476 -69407.2 234285.714 -69454.819 234428.571 -69454.819 234523.809 -69407.2 234571.428 -69359.58 M 234904.762 -68788.152 235285.714 -68788.152 M 235047.619 -68454.819 235047.619 -69311.961 235095.238 -69407.2 235190.476 -69454.819 235285.714 -69454.819 M 235096.975 -75536.348 235858.88 -75536.348 M 241096.975 -75536.348 241858.88 -75536.348 M 241477.927 -75917.301 241477.927 -75155.396 M 238153.949 -77302.301 238153.949 -78016.586 238106.33 -78159.443 238011.092 -78254.682 237868.235 -78302.301 237772.997 -78302.301 M 239058.711 -77302.301 238868.235 -77302.301 238772.997 -77349.92 238725.378 -77397.539 238630.14 -77540.396 238582.521 -77730.872 238582.521 -78111.824 238630.14 -78207.062 238677.759 -78254.682 238772.997 -78302.301 238963.473 -78302.301 239058.711 -78254.682 239106.33 -78207.062 239153.949 -78111.824 239153.949 -77873.729 239106.33 -77778.491 239058.711 -77730.872 238963.473 -77683.253 238772.997 -77683.253 238677.759 -77730.872 238630.14 -77778.491 238582.521 -77873.729 M 245355.994 -50861.494 245403.613 -50718.637 245403.613 -50480.542 245355.994 -50385.304 245308.374 -50337.685 245213.136 -50290.066 245117.898 -50290.066 245022.66 -50337.685 244975.041 -50385.304 244927.422 -50480.542 244879.803 -50671.018 244832.184 -50766.256 244784.565 -50813.875 244689.327 -50861.494 244594.089 -50861.494 244498.851 -50813.875 244451.232 -50766.256 244403.613 -50671.018 244403.613 -50432.923 244451.232 -50290.066 M 244403.613 -49956.732 245403.613 -49718.637 244689.327 -49528.161 245403.613 -49337.685 244403.613 -49099.59 M 244736.946 -48290.066 245403.613 -48290.066 M 244355.994 -48528.161 245070.279 -48766.256 245070.279 -48147.209 M 190454.819 -49881.904 191264.342 -49881.904 191359.58 -49834.285 191407.2 -49786.666 191454.819 -49691.428 191454.819 -49500.952 191407.2 -49405.714 191359.58 -49358.095 191264.342 -49310.476 190454.819 -49310.476 M 191454.819 -48310.476 191454.819 -48881.904 M 191454.819 -48596.19 190454.819 -48596.19 190597.676 -48691.428 190692.914 -48786.666 190740.533 -48881.904" fill="none" stroke-width="150"/><path d="M 246128.794 -44418.162 248848.794 -44418.162 248848.794 -54638.162 246128.794 -54638.162 246128.794 -44418.162 M 193500 -54500 194880 -54500 M 194880 -53120 194880 -54500 M 192000 -43310 230000 -43310 230000 -55310 192000 -55310 192000 -43310" fill="none" stroke-width="120"/></g><g id="IYNY3DYO8fAwMz7-UM0Y_top_soldermask"><use xlink:href="#yt8biDGb3y3SctnEZ1bo_pad-10" x="245500" y="-73000"/><use xlink:href="#yt8biDGb3y3SctnEZ1bo_pad-11" x="247500" y="-73000"/><use xlink:href="#yt8biDGb3y3SctnEZ1bo_pad-12" x="233890" y="-70993.276"/><use xlink:href="#yt8biDGb3y3SctnEZ1bo_pad-13" x="231350" y="-70993.276"/><use xlink:href="#yt8biDGb3y3SctnEZ1bo_pad-12" x="239040" y="-51500"/><use xlink:href="#yt8biDGb3y3SctnEZ1bo_pad-12" x="236500" y="-51500"/><use xlink:href="#yt8biDGb3y3SctnEZ1bo_pad-12" x="233960" y="-51500"/><use xlink:href="#yt8biDGb3y3SctnEZ1bo_pad-12" x="231420" y="-51500"/><use xlink:href="#yt8biDGb3y3SctnEZ1bo_pad-12" x="228880" y="-51500"/><use xlink:href="#yt8biDGb3y3SctnEZ1bo_pad-12" x="226340" y="-51500"/><use xlink:href="#yt8biDGb3y3SctnEZ1bo_pad-12" x="223800" y="-51500"/><use xlink:href="#yt8biDGb3y3SctnEZ1bo_pad-12" x="239040" y="-66500"/><use xlink:href="#yt8biDGb3y3SctnEZ1bo_pad-12" x="236500" y="-66500"/><use xlink:href="#yt8biDGb3y3SctnEZ1bo_pad-12" x="233960" y="-66500"/><use xlink:href="#yt8biDGb3y3SctnEZ1bo_pad-12" x="231420" y="-66500"/><use xlink:href="#yt8biDGb3y3SctnEZ1bo_pad-12" x="228880" y="-66500"/><use xlink:href="#yt8biDGb3y3SctnEZ1bo_pad-12" x="226340" y="-66500"/><use xlink:href="#yt8biDGb3y3SctnEZ1bo_pad-12" x="223800" y="-66500"/><use xlink:href="#yt8biDGb3y3SctnEZ1bo_pad-14" x="232750" y="-62000"/><use xlink:href="#yt8biDGb3y3SctnEZ1bo_pad-15" x="202258.039" y="-104000"/><use xlink:href="#yt8biDGb3y3SctnEZ1bo_pad-15" x="199258.039" y="-101000"/><use xlink:href="#yt8biDGb3y3SctnEZ1bo_pad-15" x="202258.039" y="-101000"/><use xlink:href="#yt8biDGb3y3SctnEZ1bo_pad-15" x="199258.039" y="-104000"/><use xlink:href="#yt8biDGb3y3SctnEZ1bo_pad-15" x="202258.039" y="-89500"/><use xlink:href="#yt8biDGb3y3SctnEZ1bo_pad-15" x="199258.039" y="-86500"/><use xlink:href="#yt8biDGb3y3SctnEZ1bo_pad-15" x="202258.039" y="-86500"/><use xlink:href="#yt8biDGb3y3SctnEZ1bo_pad-15" x="199258.039" y="-89500"/><use xlink:href="#yt8biDGb3y3SctnEZ1bo_pad-13" x="239727.927" y="-75462.482"/><use xlink:href="#yt8biDGb3y3SctnEZ1bo_pad-12" x="237187.927" y="-75462.482"/><use xlink:href="#yt8biDGb3y3SctnEZ1bo_pad-16" x="194767.767" y="-67500"/><use xlink:href="#yt8biDGb3y3SctnEZ1bo_pad-16" x="247500" y="-67500"/><use xlink:href="#yt8biDGb3y3SctnEZ1bo_pad-17" x="234500" y="-103500"/><use xlink:href="#yt8biDGb3y3SctnEZ1bo_pad-17" x="207767.767" y="-103500"/><use xlink:href="#yt8biDGb3y3SctnEZ1bo_pad-18" x="247488.794" y="-49528.162"/><use xlink:href="#yt8biDGb3y3SctnEZ1bo_pad-10" x="247488.794" y="-52068.162"/><use xlink:href="#yt8biDGb3y3SctnEZ1bo_pad-10" x="247488.794" y="-46988.162"/><use xlink:href="#yt8biDGb3y3SctnEZ1bo_pad-15" x="214267.767" y="-104000"/><use xlink:href="#yt8biDGb3y3SctnEZ1bo_pad-15" x="217267.767" y="-101000"/><use xlink:href="#yt8biDGb3y3SctnEZ1bo_pad-15" x="214267.767" y="-101000"/><use xlink:href="#yt8biDGb3y3SctnEZ1bo_pad-15" x="217267.767" y="-104000"/><use xlink:href="#yt8biDGb3y3SctnEZ1bo_pad-19" x="193500" y="-53120"/><use xlink:href="#yt8biDGb3y3SctnEZ1bo_pad-12" x="193500" y="-50580"/><use xlink:href="#yt8biDGb3y3SctnEZ1bo_pad-12" x="193500" y="-48040"/><use xlink:href="#yt8biDGb3y3SctnEZ1bo_pad-12" x="193500" y="-45500"/></g><g id="IYNY3DYO8fAwMz7-UM0Y_top_drill1"><use xlink:href="#BnULextIQ18So3uC-exn_pad-1" x="194768" y="-67500"/><use xlink:href="#BnULextIQ18So3uC-exn_pad-1" x="247500" y="-67500"/><use xlink:href="#BnULextIQ18So3uC-exn_pad-2" x="207768" y="-103500"/><use xlink:href="#BnULextIQ18So3uC-exn_pad-2" x="234500" y="-103500"/><use xlink:href="#BnULextIQ18So3uC-exn_pad-3" x="232750" y="-62000"/></g><g id="IYNY3DYO8fAwMz7-UM0Y_top_drill2"><use xlink:href="#qR1gGTFSuEUzFFc3GJwp_pad-1" x="245500" y="-73000"/><use xlink:href="#qR1gGTFSuEUzFFc3GJwp_pad-1" x="247489" y="-46988"/><use xlink:href="#qR1gGTFSuEUzFFc3GJwp_pad-1" x="247489" y="-49528"/><use xlink:href="#qR1gGTFSuEUzFFc3GJwp_pad-1" x="247489" y="-52068"/><use xlink:href="#qR1gGTFSuEUzFFc3GJwp_pad-1" x="247500" y="-73000"/><use xlink:href="#qR1gGTFSuEUzFFc3GJwp_pad-2" x="193500" y="-45500"/><use xlink:href="#qR1gGTFSuEUzFFc3GJwp_pad-2" x="193500" y="-48040"/><use xlink:href="#qR1gGTFSuEUzFFc3GJwp_pad-2" x="193500" y="-50580"/><use xlink:href="#qR1gGTFSuEUzFFc3GJwp_pad-2" x="193500" y="-53120"/><use xlink:href="#qR1gGTFSuEUzFFc3GJwp_pad-2" x="223800" y="-51500"/><use xlink:href="#qR1gGTFSuEUzFFc3GJwp_pad-2" x="223800" y="-66500"/><use xlink:href="#qR1gGTFSuEUzFFc3GJwp_pad-2" x="226340" y="-51500"/><use xlink:href="#qR1gGTFSuEUzFFc3GJwp_pad-2" x="226340" y="-66500"/><use xlink:href="#qR1gGTFSuEUzFFc3GJwp_pad-2" x="228880" y="-51500"/><use xlink:href="#qR1gGTFSuEUzFFc3GJwp_pad-2" x="228880" y="-66500"/><use xlink:href="#qR1gGTFSuEUzFFc3GJwp_pad-2" x="231350" y="-70993"/><use xlink:href="#qR1gGTFSuEUzFFc3GJwp_pad-2" x="231420" y="-51500"/><use xlink:href="#qR1gGTFSuEUzFFc3GJwp_pad-2" x="231420" y="-66500"/><use xlink:href="#qR1gGTFSuEUzFFc3GJwp_pad-2" x="233890" y="-70993"/><use xlink:href="#qR1gGTFSuEUzFFc3GJwp_pad-2" x="233960" y="-51500"/><use xlink:href="#qR1gGTFSuEUzFFc3GJwp_pad-2" x="233960" y="-66500"/><use xlink:href="#qR1gGTFSuEUzFFc3GJwp_pad-2" x="236500" y="-51500"/><use xlink:href="#qR1gGTFSuEUzFFc3GJwp_pad-2" x="236500" y="-66500"/><use xlink:href="#qR1gGTFSuEUzFFc3GJwp_pad-2" x="237188" y="-75462"/><use xlink:href="#qR1gGTFSuEUzFFc3GJwp_pad-2" x="239040" y="-51500"/><use xlink:href="#qR1gGTFSuEUzFFc3GJwp_pad-2" x="239040" y="-66500"/><use xlink:href="#qR1gGTFSuEUzFFc3GJwp_pad-2" x="239728" y="-75462"/></g><clipPath id="IYNY3DYO8fAwMz7-UM0Y_top_outline"><path d="M 250000 -46000 250000 -141000 A 2500 2500 0 0 0 247500 -143500 L 194767.767 -143500 A 2500 2500 0 0 0 192267.767 -141000 L 192267.767 -46000 A 2500 2500 0 0 0 194767.767 -43500 L 247500 -43500 A 2500 2500 0 0 0 250000 -46000" fill="none" stroke-width="50"/></clipPath><mask id="IYNY3DYO8fAwMz7-UM0Y_top_mech-mask"><g fill="#000" stroke="#000"><rect x="192267.767" y="-143500" width="57732.233" height="100000" fill="#fff"/><use xlink:href="#IYNY3DYO8fAwMz7-UM0Y_top_drill1"/><use xlink:href="#IYNY3DYO8fAwMz7-UM0Y_top_drill2"/></g></mask><mask id="IYNY3DYO8fAwMz7-UM0Y_top_cf-mask"><g fill="#fff" stroke="#fff"><use xlink:href="#IYNY3DYO8fAwMz7-UM0Y_top_soldermask"/></g></mask><mask id="IYNY3DYO8fAwMz7-UM0Y_top_sm-mask"><g fill="#000" stroke="#000"><rect x="192267.767" y="-143500" width="57732.233" height="100000" fill="#fff"/><use xlink:href="#IYNY3DYO8fAwMz7-UM0Y_top_soldermask"/></g></mask></defs><g transform="translate(0,-187000) scale(1,-1)"><g mask="url(#IYNY3DYO8fAwMz7-UM0Y_top_mech-mask)" clip-path="url(#IYNY3DYO8fAwMz7-UM0Y_top_outline)"><rect x="192267.767" y="-143500" width="57732.233" height="100000" fill="currentColor" class="IYNY3DYO8fAwMz7-UM0Y_fr4"/><use xlink:href="#IYNY3DYO8fAwMz7-UM0Y_top_copper" fill="currentColor" stroke="currentColor" class="IYNY3DYO8fAwMz7-UM0Y_cu"/><use xlink:href="#IYNY3DYO8fAwMz7-UM0Y_top_copper" fill="currentColor" stroke="currentColor" class="IYNY3DYO8fAwMz7-UM0Y_cf" mask="url(#IYNY3DYO8fAwMz7-UM0Y_top_cf-mask)"/><g mask="url(#IYNY3DYO8fAwMz7-UM0Y_top_sm-mask)"><rect x="192267.767" y="-143500" width="57732.233" height="100000" fill="currentColor" class="IYNY3DYO8fAwMz7-UM0Y_sm"/><use xlink:href="#IYNY3DYO8fAwMz7-UM0Y_top_silkscreen" fill="currentColor" stroke="currentColor" class="IYNY3DYO8fAwMz7-UM0Y_ss"/></g></g></g></svg>